<?xml version="1.0" standalone="no"?>
<!DOCTYPE svg PUBLIC "-//W3C//DTD SVG 20010904//EN"
 "http://www.w3.org/TR/2001/REC-SVG-20010904/DTD/svg10.dtd">
<svg version="1.0" xmlns="http://www.w3.org/2000/svg"
 width="500.000000pt" height="500.000000pt" viewBox="0 0 500.000000 500.000000"
 preserveAspectRatio="xMidYMid meet">
<metadata>
Created by potrace 1.14, written by Peter Selinger 2001-2017
</metadata>
<g transform="translate(0.000000,500.000000) scale(0.100000,-0.100000)"
fill="#000000" stroke="none">
<path d="M2470 4643 c-137 -23 -342 -133 -465 -248 -77 -73 -124 -104 -181
-121 -101 -29 -159 -89 -189 -197 -10 -35 -28 -70 -47 -89 -16 -17 -46 -56
-65 -87 -54 -85 -82 -111 -119 -111 -39 0 -54 -17 -62 -72 -6 -48 -64 -123
-128 -168 -56 -39 -114 -91 -126 -114 -18 -33 -31 -105 -32 -178 -1 -55 3 -71
22 -95 12 -15 35 -47 50 -70 15 -24 40 -48 57 -54 16 -7 49 -32 73 -55 23 -24
59 -52 80 -63 44 -22 165 -41 261 -41 37 0 90 -7 117 -15 27 -8 63 -15 79 -15
17 0 50 -6 75 -14 25 -7 73 -17 108 -21 56 -6 62 -9 62 -30 0 -18 -4 -22 -19
-18 -10 3 -21 0 -25 -5 -3 -6 -31 0 -68 15 -51 21 -73 25 -128 21 -70 -5 -154
-37 -220 -84 l-35 -25 33 29 c17 15 32 33 32 40 0 20 -21 24 -41 6 -18 -16
-19 -16 -19 4 0 43 -19 31 -26 -17 l-6 -49 -37 15 -36 14 39 -35 39 -35 -63
-67 c-34 -37 -78 -89 -97 -116 -19 -27 -54 -60 -77 -73 -46 -27 -61 -31 -51
-15 3 6 -2 10 -12 11 -13 0 -12 3 7 10 14 6 29 11 34 12 15 3 56 39 56 49 0 5
-15 15 -32 23 -27 12 -29 14 -11 15 28 0 37 14 19 29 -10 9 -15 8 -20 -4 -3
-8 -13 -15 -22 -15 -10 0 -37 -12 -62 -26 -36 -22 -44 -23 -39 -10 4 10 7 22
7 26 0 5 39 28 88 51 48 22 89 42 90 44 2 2 1 13 -3 24 -5 16 -15 21 -39 21
-31 0 -32 2 -28 33 3 17 10 36 16 40 6 5 2 6 -11 2 -15 -4 -9 7 25 40 51 51
46 68 -15 55 -62 -14 -92 -63 -93 -150 l-1 -35 -20 35 -19 35 4 -38 c2 -20 9
-44 16 -52 6 -8 9 -19 5 -25 -9 -15 -41 -12 -55 5 -20 24 -33 18 -27 -12 4
-17 -4 -6 -19 24 l-25 53 35 31 c37 32 46 62 22 76 -8 4 -16 19 -18 33 -4 31
-41 39 -69 14 -28 -26 -24 0 11 70 20 40 27 63 20 70 -16 16 -57 -10 -80 -51
-14 -26 -19 -30 -14 -13 3 14 13 35 21 48 15 24 11 58 -6 48 -5 -4 -11 0 -14
6 -3 9 -13 4 -30 -15 l-26 -27 20 -19 21 -19 -21 -11 c-15 -8 -27 -9 -40 -1
-28 14 -57 12 -71 -5 -17 -21 -6 -29 20 -15 18 10 28 7 63 -16 40 -26 41 -28
19 -37 -12 -6 -22 -14 -22 -19 0 -14 39 -48 55 -48 8 0 15 -5 15 -12 0 -6 6
-3 14 7 12 17 15 14 30 -33 22 -66 17 -103 -7 -52 -9 19 -14 25 -11 13 6 -27
-3 -29 -36 -6 -39 28 -195 15 -167 -14 4 -3 30 -6 58 -4 47 2 49 1 38 -17 -24
-38 -7 -50 57 -40 51 8 60 6 90 -14 34 -23 73 -82 62 -93 -3 -3 -16 8 -28 25
-28 39 -72 62 -106 54 l-25 -6 23 -12 c16 -9 25 -9 31 -2 4 6 6 0 5 -14 -2
-18 6 -30 35 -49 l38 -25 -36 -11 -37 -10 19 -24 c12 -15 30 -24 48 -24 27 0
28 0 10 -13 -10 -8 -24 -14 -29 -14 -6 0 -4 5 4 10 12 8 11 10 -5 10 -12 0
-26 -5 -33 -12 -9 -9 -12 -9 -12 1 0 19 -42 101 -51 101 -18 0 -18 -21 2 -54
l21 -35 -86 39 c-83 38 -139 50 -150 31 -3 -5 21 -14 54 -19 33 -6 68 -15 77
-21 14 -7 10 -11 -25 -20 -71 -20 -51 -34 36 -26 66 6 81 4 95 -10 21 -21 22
-39 2 -31 -8 3 -22 9 -30 12 -11 5 -15 -1 -15 -20 0 -19 -5 -26 -20 -26 -13 0
-18 -5 -14 -15 4 -10 -3 -18 -20 -25 -14 -5 -26 -14 -26 -20 0 -19 28 -22 58
-6 31 16 85 19 76 4 -3 -4 -1 -8 4 -8 6 0 12 -7 15 -14 4 -9 1 -13 -7 -10 -7
3 -20 -4 -30 -15 -18 -19 -18 -20 7 -26 14 -4 37 -1 52 7 25 13 29 13 54 -11
16 -14 51 -35 79 -45 l51 -20 -30 -18 c-16 -10 -29 -23 -29 -30 0 -9 -3 -9
-12 0 -14 14 -68 16 -68 4 0 -5 11 -14 24 -22 14 -7 22 -18 19 -26 -8 -20 16
-44 43 -44 30 0 37 -13 14 -28 -16 -9 -25 -5 -62 29 -29 27 -39 42 -30 46 22
9 -17 43 -50 43 -35 0 -35 -5 -1 -35 l28 -24 -28 -1 c-16 0 -26 -4 -23 -9 3
-4 16 -6 29 -4 31 6 124 -73 119 -100 -5 -24 -38 -21 -75 7 -18 14 -53 30 -78
36 -39 10 -52 9 -78 -4 -36 -19 -66 -60 -56 -77 5 -7 21 -9 42 -6 40 7 95 -2
88 -13 -3 -5 -14 -6 -24 -3 -10 3 -21 1 -24 -4 -3 -5 36 -17 88 -27 87 -17
108 -27 129 -63 3 -6 -11 -3 -31 7 -50 24 -129 50 -151 50 -34 0 -77 -37 -100
-87 -21 -44 -22 -54 -12 -91 12 -46 23 -51 59 -23 20 15 29 17 48 8 l23 -10
-25 -25 c-14 -14 -25 -32 -25 -42 0 -9 -3 -20 -7 -23 -3 -4 -7 -19 -9 -34 -1
-16 -5 -48 -9 -73 -8 -52 10 -114 25 -90 7 11 10 7 10 -16 0 -32 -13 -44 -50
-44 -24 0 -53 81 -32 88 18 6 15 22 -4 22 -13 0 -14 3 -5 14 10 12 8 15 -11
18 -30 4 -29 29 2 46 24 13 23 13 -13 7 -27 -4 -37 -3 -32 5 3 6 -12 45 -35
88 -46 84 -91 262 -89 357 1 48 2 47 19 -35 l17 -85 -1 92 c-2 104 8 103 18 0
10 -97 46 -203 106 -308 28 -50 49 -96 47 -103 -3 -6 2 -17 10 -25 27 -25 2
60 -35 118 -79 124 -123 258 -121 376 l1 60 12 -72 c7 -40 16 -76 21 -80 4 -4
5 0 2 10 -4 9 -9 46 -13 81 l-6 63 81 5 c45 3 86 9 91 14 15 15 1 70 -24 96
-12 13 -27 36 -34 51 -14 32 -38 45 -54 29 -8 -8 -4 -14 15 -21 15 -6 27 -17
27 -26 0 -19 -19 -20 -26 -1 -3 8 -12 17 -19 20 -19 7 -7 -24 17 -44 20 -17
38 -77 19 -66 -6 4 -11 13 -11 21 0 7 -16 27 -37 44 -31 25 -34 32 -23 45 10
13 10 16 -4 16 -10 0 -16 -8 -16 -22 0 -21 0 -21 -21 -2 l-20 18 20 8 c27 10
27 15 -1 14 -15 -1 -22 4 -20 13 3 12 1 12 -13 1 -16 -13 -13 -18 23 -51 l39
-37 -23 -11 c-13 -6 -24 -15 -24 -20 0 -4 -11 -8 -25 -8 -14 0 -25 4 -25 9 0
5 -5 6 -12 2 -7 -5 -8 -3 -3 6 4 7 8 32 8 54 0 32 -4 41 -17 40 -8 -1 -13 2
-10 7 3 5 0 9 -7 9 -10 0 -10 3 -2 11 6 6 9 17 6 25 -9 24 90 30 140 9 10 -4
23 -18 27 -31 7 -17 14 -22 26 -17 15 5 12 12 -19 38 -63 54 -154 54 -234 -1
-48 -32 -83 -81 -83 -117 0 -16 -11 -42 -25 -59 -52 -62 -19 -93 93 -86 57 4
63 2 68 -17 8 -33 32 -180 30 -182 -5 -5 -122 -33 -138 -33 -10 0 -18 -4 -18
-10 0 -21 -17 -8 -33 25 -10 20 -12 37 -7 40 35 22 -19 95 -70 95 -30 0 -34
-6 -30 -47 1 -19 -4 -23 -25 -23 -30 0 -44 -26 -24 -46 11 -10 23 -12 44 -5
17 4 45 6 62 4 36 -6 55 -33 22 -33 -21 0 -79 -51 -79 -69 0 -19 18 -12 56 21
27 24 40 29 51 22 16 -10 77 -114 116 -199 26 -54 70 -185 65 -191 -2 -1 -24
17 -50 41 -42 39 -46 47 -41 78 4 28 0 40 -25 68 -33 38 -124 92 -145 87 -11
-2 -10 -16 3 -72 19 -78 39 -100 97 -111 45 -8 90 -44 71 -57 -8 -5 -3 -8 14
-8 21 0 36 -12 66 -52 22 -29 45 -64 52 -78 12 -23 12 -24 -3 -11 -11 9 -17
10 -17 2 0 -6 -7 -11 -17 -11 -14 0 -14 -2 2 -20 18 -19 17 -20 -3 -20 -32 0
-27 -21 13 -53 34 -27 105 -122 105 -141 0 -5 -10 0 -23 12 -13 12 -30 22 -39
22 -9 0 -21 7 -28 15 -7 9 -15 13 -18 10 -3 -3 5 -16 18 -30 13 -14 20 -28 16
-32 -4 -4 -12 0 -17 10 -6 9 -14 15 -19 12 -5 -3 -22 3 -37 14 -28 19 -93 20
-93 1 0 -5 15 -12 32 -16 32 -7 33 -8 8 -15 -21 -6 -22 -7 -5 -9 11 -1 31 -2
45 -1 22 1 20 -1 -13 -19 -38 -21 -49 -40 -22 -40 8 0 15 5 15 11 0 6 7 9 15
5 8 -3 15 -1 15 4 0 5 10 14 21 21 16 8 20 8 14 0 -5 -8 1 -10 19 -5 40 10 31
-10 -17 -33 l-42 -22 35 0 c19 0 46 6 60 14 32 19 44 19 36 0 -3 -8 0 -15 7
-16 35 -3 -77 -28 -130 -28 -74 -1 -165 -19 -158 -31 3 -5 -16 -12 -42 -15
-27 -4 -64 -11 -83 -16 -19 -5 -56 -9 -82 -9 -59 0 -71 -16 -18 -25 67 -11 42
-30 -50 -36 -76 -5 -69 -5 56 -7 77 -1 144 -5 148 -9 4 -4 -8 -13 -26 -19
l-33 -12 28 -11 c31 -12 246 -14 370 -3 42 4 77 4 77 1 0 -4 13 -10 29 -14 22
-5 28 -11 24 -22 -5 -13 -2 -15 18 -9 67 20 376 24 411 5 48 -26 9 -45 -107
-52 -49 -4 -124 -11 -165 -16 -41 -6 -106 -11 -145 -12 -43 -1 -9 -5 85 -10
85 -5 211 -12 280 -15 l125 -7 -83 -12 c-133 -20 -126 -38 22 -55 55 -6 105
-15 112 -20 6 -6 38 -14 70 -19 33 -5 51 -9 42 -10 -10 0 -18 -5 -18 -11 0
-13 144 -13 168 -1 9 6 125 15 257 20 168 7 257 15 296 27 44 13 75 15 145 9
105 -9 95 -19 -31 -35 -131 -17 -128 -30 6 -31 62 0 222 -5 354 -11 398 -17
635 -16 670 3 77 42 156 57 305 58 97 1 143 13 98 24 -34 10 -45 8 -28 -3 10
-7 -7 -10 -57 -10 -40 0 -73 4 -73 9 0 13 43 22 82 16 23 -4 27 -3 14 3 -14 6
20 12 104 20 99 9 130 16 153 32 23 17 42 21 100 21 40 -1 142 2 227 7 135 6
151 9 127 20 -16 6 -40 11 -55 11 l-27 -1 30 -8 c18 -5 -23 -7 -100 -5 -71 2
-191 4 -265 5 -74 0 -155 4 -180 8 l-45 7 34 24 c31 23 42 24 134 22 57 -1
149 -13 216 -27 64 -13 130 -23 146 -23 17 1 -10 8 -60 16 -49 8 -94 18 -98
22 -4 4 70 11 165 15 184 8 244 16 241 34 -2 6 21 13 55 17 31 3 71 12 87 20
l30 14 -26 0 -27 1 16 35 16 35 96 2 c93 1 92 2 -40 9 -74 3 -150 7 -168 8
-19 0 -31 5 -27 11 3 5 -4 12 -17 15 -91 20 -120 25 -169 25 -119 0 -146 19
-88 61 35 25 122 38 133 20 4 -6 15 -11 24 -11 10 0 34 -11 54 -25 44 -30 48
-30 48 -7 0 22 -30 52 -51 52 -8 0 -3 -6 11 -13 14 -7 26 -21 28 -32 4 -16 0
-15 -28 8 -17 15 -37 27 -43 27 -7 0 -6 4 3 10 26 17 -136 12 -177 -5 -43 -18
-44 -18 -37 -1 3 8 -1 14 -8 13 -39 -1 -48 4 -48 28 0 19 -5 25 -22 25 -22 0
-22 0 3 25 22 22 29 24 53 15 36 -13 69 -13 60 1 -3 6 0 15 7 20 11 8 9 13
-10 29 -26 22 -80 26 -100 7 -9 -8 -8 -3 2 18 9 17 35 40 62 54 l47 25 46 -19
c59 -23 108 -30 116 -17 4 6 -2 8 -14 5 -25 -7 -96 19 -138 51 -24 17 -29 25
-20 34 7 7 8 12 2 12 -5 1 2 7 16 15 14 8 20 14 14 15 -19 0 -79 -46 -76 -59
1 -7 -2 -10 -7 -7 -5 4 -21 -8 -35 -26 -14 -18 -26 -28 -26 -21 0 7 21 38 46
70 46 59 25 39 -62 -60 -19 -21 -34 -33 -34 -28 0 5 5 13 11 17 6 3 8 16 5 28
-12 48 46 104 124 121 31 7 33 6 21 -9 -12 -14 -12 -16 3 -10 18 7 21 29 6 39
-16 10 -2 23 53 52 49 24 57 25 149 19 95 -6 128 -2 128 15 0 4 11 19 24 32
49 49 43 127 -11 148 -16 6 -23 15 -19 24 5 15 -13 80 -20 72 -3 -2 0 -15 5
-29 12 -33 -3 -58 -37 -59 -15 0 -36 -4 -47 -9 -12 -4 5 -6 42 -3 56 5 63 3
87 -20 50 -50 31 -70 -79 -82 -38 -4 -82 -13 -97 -21 -33 -17 -46 -18 -30 -2
17 17 15 28 -4 28 -13 0 -12 6 7 37 12 21 29 44 37 51 9 6 11 12 5 12 -14 0
-36 -27 -73 -89 -17 -30 -42 -63 -56 -73 -13 -11 -22 -24 -19 -29 4 -5 -2 -6
-11 -2 -13 5 -15 3 -9 -7 5 -8 4 -11 -2 -7 -25 16 72 222 144 308 15 17 28 39
29 47 2 8 12 24 23 36 12 12 21 26 21 32 0 5 -12 -6 -26 -24 -14 -17 -31 -32
-39 -32 -7 0 -16 -12 -20 -27 -4 -16 -29 -65 -56 -110 -27 -45 -54 -96 -60
-112 -14 -38 -25 -39 -32 -3 -4 21 2 34 29 62 19 20 34 42 34 50 0 9 -5 8 -15
-6 -14 -18 -14 -18 -8 3 3 13 10 23 15 23 5 0 6 5 3 10 -13 21 -61 10 -90 -20
-32 -34 -68 -41 -58 -12 3 9 13 23 21 30 9 6 11 12 5 12 -7 0 -11 9 -10 20 1
11 4 20 8 20 16 0 130 82 143 103 8 12 18 34 21 49 9 37 -12 45 -72 25 -26 -9
-48 -15 -49 -14 -1 1 7 26 18 55 22 59 37 70 105 79 49 6 103 35 103 55 0 6
20 33 45 59 25 26 45 56 44 66 0 14 -2 13 -9 -5 -5 -12 -16 -25 -25 -28 -8 -4
-15 -10 -15 -16 0 -24 -54 -58 -82 -50 -15 4 -16 7 -6 20 8 10 -6 5 -33 -10
-25 -15 -57 -29 -71 -32 -21 -3 -25 -1 -21 15 3 10 0 19 -6 19 -11 0 56 149
72 161 5 3 8 9 8 12 0 4 8 27 19 53 11 25 20 50 20 54 0 5 4 11 10 15 11 7
-10 -66 -50 -175 -15 -41 -30 -84 -34 -95 -4 -11 2 -3 14 18 12 21 28 41 36
44 9 3 11 9 6 12 -6 4 3 48 22 111 l32 105 34 -3 c19 -2 61 -8 94 -13 70 -12
86 -4 68 36 -7 14 -12 49 -12 77 0 93 -59 173 -141 193 -38 9 -100 -10 -156
-50 -26 -19 -63 -44 -80 -56 -43 -28 -44 -63 -3 -84 17 -9 30 -20 30 -26 0 -5
25 -21 55 -35 51 -24 55 -28 49 -52 -15 -61 -59 -173 -105 -264 -27 -54 -49
-106 -49 -117 0 -10 -7 -32 -15 -47 -8 -16 -15 -44 -15 -62 0 -18 -12 -56 -26
-85 -32 -64 -33 -65 -43 -48 -5 7 0 39 11 74 27 86 48 204 41 224 -4 10 -2 14
4 10 16 -10 23 28 23 128 0 50 4 107 9 128 13 54 -1 45 -32 -20 -36 -77 -46
-130 -36 -189 11 -67 11 -130 0 -118 -5 5 -18 39 -31 77 -21 64 -41 97 -60 97
-12 0 -28 -32 -24 -45 2 -5 8 -29 14 -52 6 -24 28 -63 50 -88 45 -52 48 -71
23 -153 l-16 -57 -11 66 c-7 37 -17 73 -23 80 -6 8 -17 43 -23 79 -13 70 -26
103 -39 95 -5 -2 -19 -33 -31 -67 -28 -77 -33 -83 -51 -62 -12 15 -12 16 0 10
9 -6 12 -5 9 4 -8 24 -28 23 -28 -2 0 -43 -18 2 -41 102 -31 138 -75 229 -133
272 -41 32 -44 36 -25 41 14 4 18 10 13 19 -5 7 12 -7 36 -32 36 -37 44 -42
48 -27 4 21 -38 88 -51 80 -12 -7 -87 18 -87 29 0 19 60 6 101 -22 54 -36 75
-39 34 -4 -17 14 -21 21 -10 15 11 -5 37 -9 57 -8 34 1 35 2 27 25 -13 35 -6
37 46 15 43 -19 95 -20 95 -3 0 4 -28 13 -62 21 -59 12 -61 13 -29 18 32 6 33
7 15 23 -11 9 -39 18 -64 20 -36 2 -50 -2 -68 -19 -12 -12 -38 -25 -57 -29
-19 -3 -32 -10 -29 -15 3 -5 -2 -6 -11 -3 -27 11 28 59 96 83 32 12 61 27 65
32 4 7 0 9 -12 6 -43 -13 -74 -19 -74 -14 0 3 30 27 67 53 37 26 61 50 55 52
-7 2 -28 -8 -47 -23 l-35 -26 25 57 c14 31 35 73 47 93 18 29 19 33 4 22 -9
-8 -28 -35 -41 -60 l-24 -46 -2 35 c0 19 -4 46 -8 60 l-7 25 -12 -22 c-9 -16
-10 -47 -6 -101 9 -108 -8 -114 -32 -12 -14 60 -21 75 -26 58 -11 -40 -8 -97
6 -131 11 -28 11 -36 0 -52 -8 -10 -14 -15 -14 -9 -1 5 -7 -2 -14 -15 -11 -20
-14 -21 -19 -6 -4 9 0 23 8 32 16 16 14 36 -12 86 -7 15 -18 25 -23 22 -15 -9
-12 -78 5 -118 19 -45 19 -61 1 -54 -8 3 -17 1 -19 -6 -3 -7 -9 -1 -15 13 -6
14 -11 19 -11 12 -1 -7 -5 -10 -11 -7 -15 9 -12 61 5 75 8 7 15 19 15 28 0 12
-6 10 -25 -8 -34 -32 -42 -19 -16 25 25 43 26 55 5 55 -9 0 -21 -13 -27 -29
l-10 -28 -37 38 c-20 22 -45 39 -56 38 -15 0 -16 -2 -4 -7 8 -4 16 -14 18 -22
2 -8 10 -22 18 -32 25 -26 -2 -32 -41 -8 -34 21 -80 24 -80 6 0 -5 23 -15 50
-23 62 -18 74 -29 42 -37 -50 -12 -69 -78 -43 -151 4 -11 -3 -2 -15 21 -20 38
-55 71 -66 61 -2 -3 8 -25 23 -49 39 -61 37 -103 -6 -139 -41 -34 -50 -35 -50
-10 0 29 -15 33 -55 17 -27 -11 -40 -26 -55 -61 -11 -25 -23 -45 -28 -45 -5 0
-19 11 -32 25 -13 14 -29 25 -37 25 -21 0 -15 25 18 66 45 58 57 64 126 64 68
0 80 12 45 43 -35 32 -80 22 -129 -28 -25 -24 -42 -38 -40 -30 3 7 9 30 13 49
4 25 12 36 23 36 19 0 105 52 116 70 25 40 -71 35 -112 -6 l-25 -25 7 33 c4
18 15 38 24 45 15 11 14 12 -2 13 -14 0 -17 5 -11 22 21 67 32 80 83 102 50
20 94 66 79 82 -14 13 -61 -8 -104 -48 -42 -39 -44 -39 -32 -12 31 70 52 94
93 104 22 6 67 20 100 31 45 15 91 21 185 22 104 3 133 7 174 25 64 29 165
134 201 206 25 50 27 64 23 129 -3 39 -15 97 -27 127 -25 67 -99 181 -170 261
-29 32 -59 75 -67 94 -22 54 -83 116 -139 141 -81 36 -255 225 -255 276 0 33
-62 86 -108 94 -31 5 -48 15 -71 44 -16 21 -72 64 -123 96 -51 32 -119 77
-150 100 -114 85 -223 125 -342 123 -45 -1 -92 -4 -106 -6z m256 -33 c68 -23
82 -31 275 -161 160 -108 181 -126 214 -196 30 -61 23 -72 -17 -27 -42 48 -49
34 -8 -19 24 -30 26 -36 9 -19 -32 28 -37 28 -32 -3 3 -13 8 -24 12 -23 19 2
32 -5 60 -32 16 -17 32 -26 35 -21 3 5 -1 14 -9 21 -8 7 -12 16 -9 22 3 5 12
4 20 -3 7 -6 12 -15 9 -19 -3 -4 3 -14 12 -21 14 -12 16 -12 8 1 -8 13 -7 13
11 1 10 -8 37 -31 59 -50 22 -20 32 -26 22 -15 -10 12 -17 27 -15 35 2 7 -2
13 -9 14 -6 0 -15 4 -20 9 -5 5 -2 6 6 1 9 -5 12 -3 9 6 -3 8 -11 14 -19 14
-25 0 -119 104 -119 131 0 20 40 17 77 -6 28 -16 53 -65 53 -102 0 -5 8 -16
18 -26 46 -49 137 -157 137 -164 0 -12 36 -34 80 -48 61 -20 108 -63 145 -132
19 -35 52 -83 75 -108 120 -130 196 -289 194 -405 l-1 -50 -13 42 c-21 64 -42
93 -112 152 -71 59 -126 91 -190 109 -30 9 -48 22 -63 47 -28 46 -38 46 -11 0
17 -29 18 -35 5 -35 -21 0 -72 28 -114 61 -19 16 -57 39 -83 52 -44 21 -55 22
-143 15 -112 -9 -165 7 -185 55 -18 42 -73 74 -169 97 -115 27 -168 25 -280
-10 -119 -37 -157 -37 -268 0 -50 17 -102 30 -116 30 -36 0 -32 20 9 53 21 17
46 52 60 84 24 54 34 92 16 65 -6 -11 -10 -10 -15 3 -3 10 5 41 19 72 30 67
30 66 4 53 -24 -13 -35 -7 -23 12 5 7 9 19 10 26 1 7 14 29 29 48 27 35 45 37
45 5 0 -19 31 -51 67 -70 51 -26 130 0 160 52 18 31 18 33 0 50 -18 18 -19 18
-12 -2 7 -24 -22 -57 -61 -67 -37 -9 -101 13 -120 41 -15 23 -15 27 10 69 30
52 30 51 76 60 26 5 31 4 20 -3 -9 -7 -10 -11 -3 -11 19 0 26 20 9 26 -22 9
-20 36 5 58 21 17 22 17 51 -4 24 -18 39 -21 73 -17 26 4 47 2 55 -6 10 -9 11
-9 6 1 -11 18 25 15 84 -7 54 -20 59 -19 55 18 -3 47 -49 77 -107 72 -10 -1
-28 5 -40 13 -12 9 -32 16 -43 15 -13 0 -7 -4 15 -12 19 -7 35 -19 35 -27 0
-22 -70 -25 -102 -4 l-26 17 29 16 c28 16 27 16 -71 19 -94 3 -98 4 -75 18
l25 15 -30 -5 c-69 -10 -213 -45 -252 -61 -74 -30 -71 -9 4 28 166 84 344 109
469 67z m-356 -100 c-6 -10 -13 -21 -18 -23 -20 -11 -59 -15 -72 -7 -12 7 -11
12 5 30 15 17 27 21 53 17 22 -4 30 -2 26 5 -4 7 -2 8 4 4 9 -5 9 -13 2 -26z
m145 -36 c21 -18 23 -21 5 -10 -34 22 -47 20 -19 -3 19 -15 21 -21 11 -34 -17
-20 -66 -29 -98 -17 -20 8 -25 16 -22 37 2 20 12 29 38 39 49 17 51 17 85 -12z
m340 5 c4 -6 5 -13 2 -15 -7 -8 -57 7 -57 17 0 13 47 11 55 -2z m-655 -9 c-19
-13 -30 -13 -30 0 0 6 10 10 23 10 18 0 19 -2 7 -10z m-60 -29 c0 -13 -70 -55
-78 -46 -4 4 7 18 23 31 31 25 55 31 55 15z m155 -83 c-4 -18 -10 -37 -14 -41
-15 -15 -63 -12 -74 5 -16 24 26 68 66 68 27 0 28 -2 22 -32z m-177 -20 c17
-17 15 -35 -8 -58 -21 -21 -46 -25 -69 -11 -19 12 -5 48 27 66 33 18 35 18 50
3z m238 -83 c-21 -30 -39 -55 -41 -55 -8 0 19 55 44 88 39 53 37 28 -3 -33z
m-436 -13 l23 -19 -34 -35 c-21 -22 -76 -56 -143 -87 l-108 -51 7 28 c14 58
44 110 78 136 62 47 139 59 177 28z m404 -77 c-9 -14 -18 -25 -21 -25 -5 0 5
18 20 38 17 22 18 13 1 -13z m930 4 c-3 -5 -10 -7 -15 -3 -5 3 -7 10 -3 15 3
5 10 7 15 3 5 -3 7 -10 3 -15z m-994 -13 c0 -18 -17 -39 -41 -51 -38 -20 -69
-19 -69 2 0 30 31 53 72 53 21 0 38 -2 38 -4z m21 -79 c-10 -9 -11 -8 -5 6 3
10 9 15 12 12 3 -3 0 -11 -7 -18z m-26 -57 c-3 -5 -1 -10 5 -10 6 0 10 -10 8
-22 -2 -19 -10 -24 -45 -26 -48 -3 -55 8 -25 41 10 12 11 17 3 12 -10 -5 -12
-4 -7 3 4 7 21 12 37 12 18 0 28 -4 24 -10z m-558 -137 c4 -9 1 -19 -5 -21 -7
-2 -12 -10 -12 -18 0 -9 -4 -12 -10 -9 -5 3 -10 1 -10 -4 0 -16 -40 -13 -46 3
-3 8 2 26 11 40 20 30 62 35 72 9z m273 -68 c0 -9 -7 -18 -16 -22 -18 -7 -39
11 -30 26 11 17 46 13 46 -4z m-486 -41 c10 -25 -49 -82 -101 -98 -21 -7 -23
-4 -23 32 0 47 21 69 70 75 19 2 38 5 41 5 4 1 10 -5 13 -14z m576 -79 c7 -9
11 -18 8 -20 -3 -3 -45 -12 -94 -21 -49 -8 -123 -26 -164 -39 -41 -14 -111
-29 -155 -33 -114 -13 -208 -62 -332 -173 -35 -32 -111 -79 -128 -79 -19 0 5
27 73 79 42 34 100 79 127 101 63 50 179 96 268 105 38 4 107 20 155 37 77 26
187 55 218 57 6 1 17 -6 24 -14z m1145 -85 c58 -4 74 -8 45 -9 -84 -5 -144 1
-170 15 l-25 15 30 -7 c17 -4 71 -10 120 -14z m-863 -62 c30 -40 59 -80 64
-88 11 -20 -69 42 -129 99 l-48 46 28 6 c15 4 29 7 29 8 1 0 26 -32 56 -71z
m414 -17 c-28 -72 -56 -110 -56 -76 0 11 -5 15 -14 12 -12 -5 -11 5 3 56 15
56 19 63 51 73 19 7 37 10 39 8 2 -2 -8 -35 -23 -73z m-641 53 c13 -9 50 -46
82 -82 32 -37 49 -60 38 -52 -42 31 -175 142 -175 146 0 10 33 3 55 -12z m272
-22 c-4 10 -2 20 3 23 7 4 30 -45 55 -120 10 -31 -56 46 -83 96 l-23 44 26
-30 c15 -17 25 -22 22 -13z m463 25 c0 -13 -41 -90 -58 -109 -11 -13 -18 -15
-28 -7 -10 8 -10 18 1 49 24 67 34 80 60 78 14 -1 25 -6 25 -11z m-825 -38
c49 -22 109 -55 134 -72 25 -18 59 -40 75 -49 30 -16 30 -17 7 -18 -40 0 -296
138 -317 171 -10 16 12 9 101 -32z m230 2 c54 -60 77 -91 68 -91 -16 0 -130
79 -136 93 -5 15 10 37 25 37 4 0 24 -18 43 -39z m355 -58 c-9 -14 -10 -10 -6
22 3 22 7 49 8 60 1 11 3 1 5 -22 2 -24 -1 -51 -7 -60z m70 86 c0 -6 -8 -36
-17 -67 l-18 -57 -3 59 c-2 41 1 62 10 67 18 12 28 11 28 -2z m-127 -11 c14 3
17 -4 16 -35 0 -36 -17 -93 -18 -65 -1 8 -6 10 -13 6 -7 -4 -10 -4 -6 1 4 4 4
13 -1 19 -5 6 -12 29 -16 50 -6 32 -5 37 6 30 8 -5 22 -7 32 -6z m377 2 c0
-10 -125 -130 -137 -130 -6 0 11 30 38 68 38 51 56 67 74 67 14 0 25 -2 25 -5z
m290 2 c0 -4 -16 -6 -35 -4 -19 2 -35 6 -35 8 0 2 16 4 35 4 19 0 35 -4 35 -8z
m-752 -54 c6 -21 9 -38 6 -38 -7 0 -34 59 -34 77 0 26 17 3 28 -39z m-488 -3
c41 -24 86 -53 100 -64 l25 -20 -38 9 c-49 11 -177 87 -177 105 0 22 8 19 90
-30z m527 -10 c14 -58 10 -69 -10 -28 -22 44 -30 86 -15 81 6 -2 18 -26 25
-53z m517 34 c-51 -56 -166 -121 -178 -100 -3 4 14 26 37 48 30 29 50 40 69
39 15 -1 25 1 22 3 -3 4 32 20 65 30 2 0 -4 -8 -15 -20z m66 -19 c-42 -32
-130 -83 -135 -78 -7 7 127 97 145 97 10 0 6 -6 -10 -19z m110 6 c0 -2 -23
-19 -51 -36 -75 -49 -48 -61 35 -16 38 21 79 36 98 36 l33 0 -45 -31 c-70 -47
-155 -88 -217 -104 -87 -23 -94 -18 -30 20 32 19 63 35 68 35 6 0 8 4 5 9 -4
5 -28 -2 -56 -15 -56 -27 -128 -45 -135 -34 -2 4 19 18 48 31 29 13 70 34 92
48 22 14 65 33 95 42 65 21 60 20 60 15z m-1310 -32 c33 -15 59 -28 57 -30 -4
-4 -126 24 -138 32 -11 6 -2 24 11 24 5 0 36 -12 70 -26z m1440 -40 c-74 -48
-163 -89 -237 -108 -94 -25 -106 -18 -23 12 41 15 118 51 170 79 114 62 178
74 90 17z m-2162 14 c-2 -6 -12 -12 -22 -14 -14 -2 -15 0 -5 12 14 17 32 19
27 2z m592 -27 c36 -10 106 -35 155 -55 100 -39 86 -47 -40 -21 -94 20 -271
84 -232 84 15 1 27 5 27 11 0 5 6 8 13 5 6 -2 41 -13 77 -24z m1380 19 c-8 -5
-19 -10 -25 -10 -5 0 -3 5 5 10 8 5 20 10 25 10 6 0 3 -5 -5 -10z m284 -6 c9
-3 13 -11 10 -16 -4 -6 2 -8 17 -3 l24 6 -23 -18 c-23 -19 -294 -113 -325
-113 -30 0 -18 18 21 30 20 7 70 30 111 52 40 22 90 46 110 53 20 8 37 14 38
14 1 1 8 -2 17 -5z m-1782 -35 c29 -11 102 -34 163 -50 l110 -29 -80 4 c-78 5
-151 25 -227 62 -36 17 -50 34 -28 34 5 0 33 -9 62 -21z m25 -58 c81 -27 186
-55 232 -62 73 -11 80 -14 55 -21 -16 -5 -87 -9 -159 -10 -115 -1 -140 2 -220
26 -49 15 -103 36 -120 48 -18 12 -22 18 -10 14 16 -5 16 -3 -5 14 l-25 19 38
-6 c21 -3 37 -2 36 3 -6 34 5 32 178 -25z m1863 44 c0 -8 -139 -47 -152 -42
-9 4 -7 6 3 6 9 1 36 10 60 21 41 18 89 26 89 15z m100 -34 c22 -6 17 -10 -40
-30 -49 -18 -100 -25 -210 -31 -80 -5 -161 -11 -180 -14 -19 -3 -4 5 35 19 39
13 84 24 100 25 22 0 26 3 16 9 -10 7 -2 8 25 5 21 -3 59 2 84 10 48 15 128
19 170 7z m247 -27 c70 -44 68 -43 61 -49 -6 -6 -125 62 -134 76 -11 19 18 8
73 -27z m-1227 -29 c0 -16 2 -17 9 -6 8 12 14 7 31 -22 23 -38 39 -52 20 -18
-15 29 -12 48 5 25 13 -17 14 -16 5 15 -12 44 -4 53 21 21 36 -47 61 -109 55
-135 -8 -33 -59 -59 -101 -51 -22 4 -50 0 -86 -14 -60 -24 -84 -21 -129 17
-31 25 -120 49 -120 32 0 -12 36 -29 62 -29 l23 0 -25 -20 c-17 -13 -41 -20
-73 -20 -56 0 -84 12 -98 43 -8 20 -9 19 -4 -5 6 -33 -12 -37 -44 -10 -51 42
-32 107 53 176 59 49 81 43 33 -10 -33 -37 -63 -92 -54 -100 2 -3 18 19 36 47
17 28 34 49 37 46 3 -3 1 -14 -4 -24 -5 -10 -12 -31 -16 -48 -4 -20 3 -12 21
25 23 44 33 56 56 58 25 3 27 1 23 -25 l-6 -28 12 27 c13 31 35 43 53 28 9 -7
16 -6 25 5 7 8 27 15 46 15 26 0 33 -5 37 -22 4 -20 4 -20 6 4 1 32 21 49 21
18 0 -21 5 -20 43 16 14 14 27 0 27 -31z m1070 25 c18 -11 14 -15 -35 -28 -34
-9 -26 -10 46 -5 83 5 129 -4 129 -27 0 -9 -51 -26 -100 -34 -18 -2 -15 -4 10
-5 19 0 50 3 69 9 19 5 38 7 44 3 15 -9 -30 -29 -93 -42 -95 -19 -97 -20 -17
-16 43 3 87 10 98 16 19 9 19 9 10 -9 -17 -32 -75 -45 -226 -52 l-140 -7 118
-1 c70 -1 117 -6 117 -12 0 -5 15 -11 33 -11 65 -2 -43 -18 -138 -20 l-90 -2
64 -8 c104 -13 99 -29 -9 -30 l-95 -2 75 -11 75 -12 -37 -11 c-21 -6 -66 -9
-100 -7 -63 3 -63 3 -19 -7 32 -8 40 -13 30 -20 -23 -14 -79 -10 -215 15 -71
13 -142 26 -159 29 -16 3 -46 12 -65 21 -34 16 -31 16 20 2 14 -4 2 6 -27 23
-43 26 -74 51 -61 51 2 0 40 -13 84 -29 64 -22 89 -27 120 -21 29 6 33 8 14
10 -14 1 -41 8 -60 15 -35 13 -34 13 40 15 54 1 68 4 50 10 -16 5 18 9 95 10
83 2 108 5 82 10 -20 4 -40 10 -43 13 -10 9 67 27 126 28 45 1 49 3 25 9 l-30
7 37 7 c21 5 61 12 90 17 l53 8 -65 -4 c-36 -2 -121 -20 -190 -40 -108 -32
-140 -37 -235 -39 -88 -1 -116 2 -142 17 -18 10 -33 19 -33 20 0 1 42 3 93 3
50 1 126 7 167 14 79 13 235 58 227 66 -2 2 -55 -9 -118 -25 -125 -32 -277
-47 -324 -32 l-30 9 35 1 c19 1 64 10 100 21 36 11 52 18 35 15 -16 -3 -55 -7
-85 -10 -50 -5 -47 -3 30 16 56 13 102 18 135 15 35 -4 46 -3 35 5 -10 7 3 8
45 4 47 -4 83 1 165 24 117 32 138 35 160 21z m-2160 -66 c63 -20 135 -40 160
-44 40 -7 34 -8 -45 -10 l-90 -3 80 -8 c44 -4 112 -5 150 -3 70 3 70 3 20 -7
-27 -5 -117 -8 -200 -6 -93 3 -129 1 -95 -3 30 -5 120 -8 199 -9 162 -1 176
-12 45 -37 -153 -28 -166 -34 -74 -28 91 6 132 10 140 13 12 6 100 5 100 0 0
-11 -110 -38 -220 -54 -58 -8 -130 -22 -160 -30 -30 -8 -71 -15 -90 -15 -40 0
-124 35 -116 48 8 13 79 31 156 41 83 11 20 12 -85 2 -60 -6 -87 -4 -107 6
-41 20 -26 43 31 44 30 1 36 3 16 6 -56 6 -105 24 -105 37 0 11 13 11 76 -1
42 -8 88 -12 103 -10 21 3 20 4 -9 6 -42 2 -129 24 -156 39 -17 10 -16 11 9
12 16 0 26 4 23 9 -3 5 28 -2 70 -15 42 -14 102 -26 133 -28 31 -2 45 -2 31 0
-56 9 -117 27 -163 46 -43 19 -46 22 -30 34 24 19 62 13 203 -32z m1389 -3
c64 -39 85 -70 71 -106 -17 -44 -38 -54 -112 -55 -96 0 -110 8 -57 34 24 12
45 28 47 38 2 9 -11 32 -27 51 -37 41 -42 71 -8 40 12 -11 29 -24 37 -28 13
-8 13 -7 1 8 -7 9 -10 17 -5 17 5 1 -2 10 -16 22 l-25 21 25 -8 c14 -4 45 -19
69 -34z m-779 -1 c-12 -23 -10 -102 4 -132 7 -14 3 -18 -16 -18 -41 0 -68 27
-68 67 0 29 8 44 41 75 43 41 58 44 39 8z m1768 -16 c17 -20 32 -47 35 -60 5
-29 -21 -67 -67 -96 -24 -16 -26 -19 -9 -15 21 5 21 4 7 -18 -19 -29 -84 -72
-136 -91 -22 -8 -74 -14 -116 -14 l-75 0 61 31 c34 17 71 43 82 58 13 19 35
32 65 40 53 13 135 82 135 113 0 11 -5 28 -11 39 -10 19 -9 20 13 9 18 -9 17
-6 -7 14 -16 14 -25 26 -18 26 6 0 25 -16 41 -36z m-1061 -58 c-2 -6 -18 -12
-35 -14 -28 -3 -32 0 -32 20 0 13 -3 34 -7 48 -6 24 -5 24 36 -9 23 -18 40
-38 38 -45z m8 -26 c-3 -5 -12 -10 -18 -10 -7 0 -6 4 3 10 19 12 23 12 15 0z
m-887 -65 c-56 -31 -186 -73 -258 -84 -119 -19 -236 -24 -256 -12 -17 9 -16
10 7 11 15 0 60 7 100 15 41 8 124 21 184 29 61 8 137 24 170 34 73 24 89 26
53 7z m782 -155 c5 -85 17 -233 26 -328 l16 -173 -25 -38 c-14 -21 -48 -83
-75 -137 -28 -54 -62 -116 -76 -137 -63 -92 -73 -145 -33 -172 35 -22 122 -36
168 -26 45 10 44 15 30 -122 -6 -58 -14 -84 -30 -101 -27 -28 -27 -71 -1 -89
17 -12 20 -21 14 -56 -6 -36 -9 -40 -28 -35 -31 7 -69 -9 -115 -52 l-41 -36
-1 63 -1 64 -17 -88 c-9 -48 -19 -88 -24 -87 -4 0 -20 -12 -34 -27 l-27 -27
-9 40 c-10 47 -4 271 7 299 7 15 6 17 -3 9 -23 -21 -42 -120 -48 -244 -6 -141
-20 -179 -40 -109 l-12 44 3 -43 c2 -27 -3 -54 -15 -77 -11 -19 -19 -41 -18
-47 0 -7 7 1 14 17 17 37 19 14 3 -40 l-12 -40 -7 30 c-3 17 -5 68 -3 115 3
86 0 82 -22 -29 -7 -34 -13 -23 -35 64 -24 98 -24 97 7 93 37 -4 55 25 32 49
-17 16 -19 16 -43 -7 -19 -18 -25 -20 -25 -8 0 9 -3 29 -6 45 -5 24 -1 35 17
51 12 12 26 19 31 16 4 -3 8 0 8 5 0 6 7 11 15 11 8 0 15 7 15 15 0 8 -6 15
-14 15 -11 0 -15 41 -7 83 0 4 16 6 34 5 28 -3 32 0 35 23 8 72 -73 51 -84
-21 -4 -22 -10 -40 -15 -40 -5 0 -6 -12 -3 -27 5 -26 3 -28 -26 -28 l-32 0 6
49 c3 32 0 60 -10 85 -15 34 -14 91 2 174 5 26 8 27 62 27 73 1 139 29 148 64
11 46 -4 71 -91 145 -85 73 -104 98 -64 86 13 -4 27 0 40 11 45 41 2 103 -62
89 -32 -7 -32 -7 -25 26 4 19 10 55 13 81 3 26 9 45 13 43 10 -6 40 188 40
257 0 29 7 73 14 98 14 43 15 36 17 -135 2 -215 15 -153 19 95 2 85 5 143 7
127 2 -15 9 -25 14 -22 5 4 9 -17 10 -47 1 -103 16 -97 24 10 4 56 10 102 13
102 12 0 31 -38 32 -65 1 -26 3 -27 10 -10 5 11 9 35 9 53 1 17 3 32 5 32 2 0
11 2 19 5 11 5 15 -12 21 -87 11 -154 25 -170 19 -20 -5 118 -4 132 10 132 13
0 17 -9 17 -37 0 -28 3 -34 10 -23 7 11 10 -4 11 -50 l1 -65 15 78 c8 43 16
77 18 75 3 -3 31 -255 42 -381 3 -37 8 -65 11 -63 2 3 -4 106 -14 229 -18 228
-13 312 12 212 12 -49 12 -49 13 -13 2 84 29 38 32 -56 1 -22 6 6 10 64 8 100
18 147 25 125 1 -5 8 -80 14 -165z m-680 124 c0 -9 -136 -69 -232 -103 -49
-17 -88 -27 -88 -22 0 5 -16 5 -35 1 -20 -4 -35 -4 -35 1 0 5 10 9 21 9 25 0
163 40 157 45 -2 2 -32 -4 -68 -14 -36 -10 -103 -21 -150 -25 -78 -6 -83 -5
-59 8 14 9 66 22 115 31 76 14 158 33 226 52 9 3 18 -2 20 -11 3 -13 10 -12
53 8 50 24 75 31 75 20z m908 -28 c26 -13 91 -26 159 -31 22 -2 49 -18 84 -49
28 -25 60 -46 70 -46 10 0 19 -4 19 -10 0 -20 -54 -10 -89 17 l-36 26 28 -30
29 -31 -32 -7 c-42 -9 -109 -10 -140 -1 -19 6 -21 5 -10 -3 8 -6 13 -11 10
-11 -3 0 -20 -4 -38 -9 -32 -10 -32 -10 -63 52 -17 34 -47 80 -68 102 -37 41
-30 37 54 -33 47 -39 152 -93 178 -92 7 1 -15 15 -49 33 -33 18 -76 44 -95 60
l-34 27 70 -26 c39 -14 90 -34 115 -45 42 -18 44 -18 21 -1 -13 11 -65 36
-115 57 -89 38 -135 65 -108 65 7 0 25 -6 40 -14z m375 -67 c80 -17 104 -25
91 -32 -9 -5 -32 -7 -51 -4 -33 6 -34 5 -17 -8 18 -13 16 -14 -19 -15 -45 0
-102 27 -137 65 l-25 28 25 -6 c14 -3 74 -15 133 -28z m-446 -1 c12 -13 33
-47 47 -75 21 -42 23 -53 11 -53 -17 0 -107 129 -99 142 8 13 19 9 41 -14z
m-61 -17 c-3 -5 0 -11 7 -14 6 -2 27 -25 44 -50 26 -35 30 -46 18 -51 -8 -3
-22 6 -33 22 -30 42 -52 89 -45 96 9 9 15 7 9 -3z m-936 -9 c0 -4 -9 -8 -19
-8 -11 0 -17 4 -15 8 3 4 12 8 20 8 8 0 14 -4 14 -8z m-105 -42 c-27 -12 -43
-12 -25 0 8 5 22 9 30 9 10 0 8 -3 -5 -9z m1411 -67 c-3 -10 -10 -37 -16 -61
-14 -56 -30 -44 -30 24 0 51 1 54 26 54 19 0 24 -4 20 -17z m-116 -5 c0 -7 14
-31 30 -52 17 -22 30 -49 30 -60 0 -19 0 -19 -22 1 -34 31 -90 63 -111 63 -23
0 -34 -29 -16 -41 8 -5 23 -9 35 -9 33 0 93 -60 95 -95 3 -67 2 -68 -34 -41
-36 28 -47 25 -47 -10 0 -13 -8 -24 -20 -27 -11 -3 -20 -10 -20 -16 0 -10 36
-46 76 -75 23 -17 24 -94 2 -166 l-14 -45 -44 85 c-51 97 -78 127 -126 136
-33 6 -34 8 -34 51 0 26 6 51 15 59 18 19 20 54 3 54 -9 0 -9 3 1 9 9 6 11 15
6 27 -9 22 -12 30 -14 44 -1 14 -21 13 -54 -2 -27 -13 -37 -38 -16 -38 8 0 8
-5 -1 -15 -10 -12 -10 -16 1 -20 18 -7 20 -176 2 -182 -14 -5 -21 41 -31 199
l-7 118 35 5 c19 3 61 12 92 20 32 8 72 15 90 16 18 0 42 4 53 9 29 13 45 12
45 -2z m-2065 -117 c-8 -17 -18 -31 -21 -31 -3 0 -12 16 -20 37 -13 30 -13 38
-2 44 7 4 22 14 33 23 19 14 20 13 23 -14 2 -16 -4 -43 -13 -59z m239 80 c8
-13 -39 -52 -68 -55 -21 -3 -24 -1 -16 15 20 35 72 61 84 40z m909 -12 c41
-11 43 -20 31 -126 -8 -60 -24 -72 -24 -18 0 43 -14 44 -48 5 -30 -35 -46 -39
-37 -10 5 16 2 20 -18 20 -40 0 -39 12 3 32 33 16 40 25 40 49 0 25 -5 29 -37
35 -21 4 -45 10 -53 15 -22 12 97 11 143 -2z m-268 -37 c66 -34 91 -70 179
-264 19 -43 38 -78 42 -78 3 0 4 7 0 15 -7 19 4 19 33 -1 20 -14 22 -22 17
-55 -5 -31 -3 -39 13 -44 10 -3 27 -15 37 -26 18 -20 18 -21 -1 -35 -19 -14
-15 -19 83 -112 56 -53 102 -101 102 -107 -1 -35 -18 -33 -75 10 -58 43 -172
91 -198 82 -6 -2 23 -14 65 -27 43 -12 76 -26 73 -30 -12 -20 -249 78 -362
150 -82 52 -160 71 -277 66 -85 -4 -91 -3 -36 4 125 15 167 12 246 -20 42 -16
95 -43 119 -60 24 -16 47 -30 52 -30 22 1 -137 92 -193 110 -39 13 -64 27 -64
36 0 8 -4 14 -9 14 -4 0 -8 18 -8 40 0 22 4 37 8 34 5 -3 9 2 9 11 0 9 5 13
11 9 8 -4 9 0 4 15 -3 11 -3 21 2 21 4 0 16 20 26 43 18 45 43 55 69 29 7 -7
29 -12 51 -12 33 0 38 -3 32 -19 -3 -11 -2 -22 4 -25 5 -3 11 10 13 28 2 19 0
32 -4 30 -4 -3 -9 5 -9 18 -1 18 -2 19 -6 5 -6 -24 -34 -18 -44 10 -7 18 -5
21 9 16 15 -6 15 -5 3 10 -7 9 -10 17 -6 17 5 0 0 9 -10 20 -13 15 -15 20 -4
20 9 0 8 5 -5 18 -13 12 -20 14 -23 5 -6 -17 -76 -17 -71 -1 3 7 15 15 29 19
22 7 22 7 -6 8 -17 1 -36 -4 -41 -9 -7 -7 -23 -4 -50 9 -23 11 -52 18 -65 15
-13 -2 -1 7 26 21 42 22 60 25 110 22 34 -2 78 -13 100 -25z m135 -1 c0 -11
-4 -23 -10 -26 -6 -4 -9 5 -8 19 3 30 18 35 18 7z m-445 -52 c-8 -12 -35 -12
-35 0 0 11 22 20 33 14 4 -2 5 -9 2 -14z m88 1 c-4 -14 -14 -20 -35 -20 -38 0
-32 23 8 31 16 4 30 7 31 8 0 0 -1 -8 -4 -19z m554 -62 c-3 -7 -5 -2 -5 12 0
14 2 19 5 13 2 -7 2 -19 0 -25z m2314 9 c45 -30 80 -99 79 -157 -1 -25 2 -58
6 -73 l7 -29 -31 16 c-16 8 -44 34 -62 56 -26 32 -38 40 -65 40 -63 0 -132 21
-164 49 -36 32 -34 35 53 90 63 39 126 42 177 8z m-2771 -32 c30 -15 39 -38
20 -50 -6 -4 -7 1 -3 12 5 15 3 16 -8 6 -19 -19 -88 -17 -95 2 -8 20 13 45 38
45 10 0 32 -7 48 -15z m443 -76 c-5 -5 -6 11 -3 34 4 41 5 41 8 8 2 -18 0 -37
-5 -42z m1291 39 c-3 -5 -12 -7 -19 -4 -7 2 -18 -1 -24 -7 -6 -6 -11 -8 -11
-5 0 4 7 13 15 22 16 16 49 11 39 -6z m73 -29 c-11 -18 -8 -23 21 -47 18 -15
32 -35 32 -44 0 -21 -22 -36 -28 -19 -2 7 -17 27 -32 44 -18 21 -29 46 -31 74
l-4 41 27 -14 c25 -13 26 -17 15 -35z m-2436 20 c-11 -12 -25 -18 -32 -14 -8
6 -4 12 12 21 35 19 42 17 20 -7z m1096 -21 c-3 -8 -6 -5 -6 6 -1 11 2 17 5
13 3 -3 4 -12 1 -19z m892 -35 c-1 -37 -1 -37 -8 -8 -7 28 -5 45 5 45 2 0 3
-17 3 -37z m351 34 c0 -2 -10 -12 -21 -23 -22 -19 -22 -19 -10 4 10 18 31 31
31 19z m120 -7 c0 -5 -4 -10 -10 -10 -5 0 -10 5 -10 10 0 6 5 10 10 10 6 0 10
-4 10 -10z m-1502 -45 c-2 -12 -7 -7 -15 16 -12 30 -11 32 3 17 9 -8 14 -23
12 -33z m71 8 c-1 -42 -12 -64 -27 -54 -10 6 -11 19 -7 45 9 43 35 50 34 9z
m1341 -13 c-8 -6 -22 -10 -30 -9 -9 0 -5 6 10 14 27 14 44 10 20 -5z m320 0
c-8 -5 -28 -9 -45 -9 -29 1 -29 1 -5 9 14 4 34 8 45 9 16 1 17 -1 5 -9z
m-2365 -10 c-3 -5 -10 -10 -16 -10 -5 0 -9 5 -9 10 0 6 7 10 16 10 8 0 12 -4
9 -10z m210 0 c3 -5 -3 -10 -14 -10 -12 0 -21 5 -21 10 0 6 6 10 14 10 8 0 18
-4 21 -10z m1866 -35 l16 -35 -32 0 c-25 0 -34 5 -39 23 -4 14 0 26 11 35 23
17 26 16 44 -23z m-607 4 c15 -12 51 -69 81 -128 29 -59 60 -113 69 -120 9 -7
13 -18 9 -25 -3 -6 -3 -8 2 -4 11 11 67 -31 59 -44 -5 -7 -2 -8 5 -3 14 8 56
-27 73 -60 8 -16 5 -14 -18 6 -46 42 -67 49 -176 59 -108 9 -212 7 -288 -5
l-45 -8 19 22 c11 11 16 21 13 21 -3 0 3 10 14 23 47 51 89 117 75 117 -9 0
-12 7 -9 21 4 15 8 17 14 8 5 -9 11 -4 21 17 18 40 30 52 49 47 9 -3 20 0 23
6 5 7 -1 11 -14 11 -14 0 -24 8 -27 21 -5 19 -11 21 -47 16 -39 -5 -40 -5 -16
8 36 21 83 18 114 -6z m536 -40 c0 -6 -4 -7 -10 -4 -5 3 -10 11 -10 16 0 6 5
7 10 4 6 -3 10 -11 10 -16z m180 1 c0 -5 -5 -10 -11 -10 -5 0 -7 5 -4 10 3 6
8 10 11 10 2 0 4 -4 4 -10z m-200 -14 c0 -3 -4 -8 -10 -11 -5 -3 -10 -1 -10 4
0 6 5 11 10 11 6 0 10 -2 10 -4z m228 -27 c97 -47 129 -105 182 -325 32 -135
35 -159 20 -149 -5 3 -6 13 -3 22 4 11 3 14 -5 9 -7 -4 -12 -1 -12 7 0 8 -7
20 -15 27 -12 10 -13 7 -5 -19 7 -26 6 -30 -13 -34 -16 -3 -13 -5 9 -6 39 -1
62 -27 85 -93 10 -29 18 -49 19 -44 0 10 64 -78 100 -139 23 -39 23 -40 2 -21
-34 30 -26 8 9 -25 31 -29 31 -30 13 -50 -10 -12 -28 -26 -39 -31 -19 -11 -19
-10 -2 16 17 26 17 28 -3 56 -34 48 -149 129 -174 122 -16 -5 -80 21 -212 85
-73 34 -135 63 -140 63 -4 0 -16 8 -27 18 -11 9 -17 11 -13 5 11 -19 0 -16
-42 11 -20 13 -52 27 -71 31 -24 5 -30 10 -20 16 10 6 2 9 -23 9 l-38 0 20 38
c17 33 25 62 45 154 6 31 43 70 57 62 12 -8 59 36 52 47 -3 5 -1 9 5 9 5 0 8
9 6 21 -2 12 0 19 7 17 6 -2 22 6 35 18 34 31 55 19 67 -38 0 -3 5 -10 10 -15
5 -5 6 -3 2 5 -4 6 -3 12 3 12 6 0 16 -10 22 -22 11 -20 13 -20 24 -5 7 9 17
17 23 17 6 0 14 4 17 10 4 6 -1 7 -12 3 -14 -5 -15 -3 -6 7 6 7 16 9 22 6 15
-9 14 -46 -1 -46 -6 0 -9 -2 -6 -5 8 -9 38 6 32 16 -3 5 10 6 28 2 l33 -6 -20
24 c-11 13 -27 30 -35 37 -8 7 -9 11 -2 7 17 -9 15 0 -5 16 -14 12 -16 12 -8
0 6 -11 4 -13 -9 -8 -10 4 -19 1 -22 -7 -8 -21 -32 -28 -55 -16 -24 13 -25 40
-1 41 14 0 14 2 -3 9 -30 13 6 13 41 0 43 -17 41 -2 -2 16 -29 12 -57 15 -109
11 -65 -5 -68 -5 -40 8 47 22 151 19 203 -6z m-2203 1 c-3 -5 -11 -10 -16 -10
-6 0 -7 5 -4 10 3 6 11 10 16 10 6 0 7 -4 4 -10z m-84 -12 c0 -10 2 -10 6 0 6
14 33 16 33 2 0 -5 12 -13 28 -17 l27 -7 -35 -7 -35 -6 35 -2 c19 -1 42 -6 50
-11 10 -7 -12 -8 -70 -4 -47 3 -90 7 -97 9 -6 2 -26 0 -42 -5 -47 -13 -37 6
17 34 53 27 82 32 83 14z m154 -26 c-3 -3 -11 0 -18 7 -9 10 -8 11 6 5 10 -3
15 -9 12 -12z m739 -11 c18 -20 13 -46 -11 -55 -18 -7 -33 1 -33 18 0 8 -7 19
-15 26 -13 11 -13 15 -3 21 21 14 44 10 62 -10z m1150 -7 c26 -10 18 -23 -14
-22 -29 1 -37 8 -23 21 8 9 17 9 37 1z m-154 -49 c-12 -13 -27 -22 -31 -19 -5
3 -3 11 4 18 6 8 15 12 19 10 4 -2 9 0 13 6 3 5 9 10 12 10 4 0 -4 -11 -17
-25z m-2090 1 c0 -2 -7 -7 -16 -10 -8 -3 -12 -2 -9 4 6 10 25 14 25 6z m351
-18 c3 -5 18 -4 32 1 21 8 27 8 27 -4 0 -9 -16 -16 -44 -20 -55 -9 -78 -4 -83
15 -4 13 -3 13 6 0 9 -13 12 -12 17 7 6 21 31 22 45 1z m200 12 c13 -7 19 -7
19 0 0 9 94 -21 108 -34 14 -15 -9 -15 -49 0 -24 8 -56 17 -72 18 -28 2 -63
26 -38 26 7 0 21 -5 32 -10z m-361 -20 c0 -5 -4 -10 -10 -10 -5 0 -10 5 -10
10 0 6 5 10 10 10 6 0 10 -4 10 -10z m1845 -27 c-28 -20 -41 -16 -20 7 10 11
22 17 28 13 6 -4 3 -12 -8 -20z m-1760 8 c3 -5 1 -12 -4 -15 -5 -4 -12 0 -14
6 -3 8 -6 5 -6 -6 -1 -14 4 -17 19 -13 11 3 20 1 20 -4 0 -12 -27 -11 -51 1
-27 15 -24 40 5 40 14 0 27 -4 31 -9z m1649 3 c16 -6 23 -34 8 -34 -10 0 -32
22 -32 32 0 10 3 10 24 2z m291 -14 c-3 -5 -10 -10 -16 -10 -5 0 -9 5 -9 10 0
6 7 10 16 10 8 0 12 -4 9 -10z m-1657 -41 c24 -13 32 -55 8 -46 -7 3 -35 9
-62 13 -43 6 -63 17 -64 34 0 11 96 10 118 -1z m1463 2 c0 10 2 11 6 2 2 -7
14 -13 24 -13 13 0 18 -4 13 -12 -5 -8 -2 -9 9 -5 10 4 24 10 33 14 15 6 16
-1 10 -56 -4 -35 -12 -75 -18 -89 l-11 -27 -7 32 c-10 42 -35 82 -73 114 -18
16 -27 31 -23 38 6 9 11 9 22 0 11 -9 14 -8 15 2z m-1211 -44 c0 -8 3 -8 9 1
6 11 10 10 15 -4 3 -9 4 -19 1 -22 -10 -10 -52 17 -58 37 -4 18 -2 19 14 10
10 -5 19 -15 19 -22z m-141 -1 c14 -15 30 -22 42 -19 10 3 19 0 19 -6 0 -12
-59 -15 -76 -3 -13 8 -25 52 -15 52 4 0 18 -11 30 -24z m2218 16 c17 -11 24
-53 15 -87 -8 -29 -9 -29 -20 -9 -15 29 -27 104 -16 104 5 0 14 -4 21 -8z
m-2257 -28 c0 -9 -5 -14 -12 -12 -18 6 -21 28 -4 28 9 0 16 -7 16 -16z m1313
-15 c43 -11 107 -70 107 -99 0 -36 -33 -43 -151 -29 -105 11 -109 13 -109 35
0 30 23 31 38 2 11 -22 11 -22 6 4 -5 23 -3 26 16 21 12 -3 28 -17 37 -30 13
-20 18 -22 25 -10 8 15 48 12 48 -3 0 -12 31 -21 51 -15 31 10 22 25 -26 46
-50 22 -59 34 -20 27 36 -7 21 9 -16 17 -20 5 -34 3 -39 -5 -5 -8 -20 -9 -46
-4 -32 6 -35 8 -19 15 16 6 14 8 -12 8 -17 1 -34 -3 -38 -8 -7 -12 -164 -11
-171 1 -6 9 -79 1 -109 -12 -11 -5 -38 -14 -60 -19 -22 -6 -49 -18 -60 -27
-17 -13 -17 -15 -2 -10 11 4 17 0 17 -11 0 -15 2 -15 18 0 9 8 30 20 45 26 25
10 27 9 17 -8 -17 -32 -12 -34 21 -7 38 32 59 34 53 4 l-5 -23 12 23 c17 31
39 28 39 -7 0 -27 -3 -29 -52 -35 -102 -12 -188 1 -188 29 0 18 50 65 70 65 9
0 24 6 35 14 28 19 68 27 165 36 96 9 246 3 303 -11z m-1871 -61 c25 -44 26
-48 8 -48 -21 0 -50 25 -49 43 0 9 2 8 6 0 2 -7 9 -13 14 -13 4 0 6 7 3 15 -8
20 -30 19 -39 -2 -7 -17 -8 -16 -15 2 -17 41 -12 57 17 53 20 -2 34 -15 55
-50z m-500 25 c22 -19 24 -48 4 -40 -8 3 -31 9 -50 13 -38 7 -43 13 -24 32 17
17 48 15 70 -5z m92 -5 c20 -28 20 -38 1 -38 -13 0 -35 36 -35 56 0 12 21 1
34 -18z m3179 -70 c1 -27 5 -48 10 -48 11 0 9 -58 -3 -65 -6 -4 -11 8 -11 27
l-2 33 -6 -35 -6 -35 -23 37 -23 37 22 71 c20 62 24 68 32 48 5 -13 9 -44 10
-70z m-3439 63 c17 -19 17 -20 -19 -27 -47 -8 -65 8 -34 30 30 20 32 20 53 -3z
m742 3 c-3 -9 -6 -20 -6 -25 0 -18 -17 -8 -28 16 -11 23 -10 25 14 25 20 0 25
-4 20 -16z m3112 -2 c22 -15 -24 -45 -80 -52 l-51 -7 29 24 c47 39 78 50 102
35z m-3265 -46 c7 4 9 4 5 -1 -4 -4 -3 -14 3 -22 18 -21 2 -15 -25 10 -20 19
-23 26 -13 36 9 10 13 8 15 -9 2 -12 8 -18 15 -14z m311 18 c3 -8 2 -12 -4 -9
-6 3 -10 10 -10 16 0 14 7 11 14 -7z m271 -21 c-4 -27 -3 -32 4 -18 5 12 7
-31 4 -115 -6 -171 10 -255 67 -351 22 -37 40 -70 40 -72 0 -3 -17 -3 -37 0
-33 4 -39 1 -50 -21 -10 -23 -8 -28 10 -41 12 -8 29 -15 39 -15 10 0 18 -7 18
-15 0 -8 -5 -15 -11 -15 -7 0 -5 -10 5 -25 14 -21 14 -24 1 -19 -8 4 -15 3
-15 0 0 -4 11 -11 25 -16 21 -8 25 -16 25 -47 -1 -21 -7 -49 -15 -63 -12 -22
-14 -23 -20 -7 -4 9 -5 33 -3 51 2 19 1 33 -4 30 -4 -2 -10 -36 -14 -75 l-7
-71 -27 63 c-31 72 -100 189 -100 170 0 -6 14 -64 30 -128 17 -64 28 -118 25
-121 -3 -3 -5 0 -5 7 0 7 -4 9 -10 6 -5 -3 -7 0 -4 8 6 18 -66 110 -104 132
-46 28 -74 92 -78 182 -14 310 -16 409 -10 476 4 42 11 77 14 77 4 0 6 -55 6
-122 l-2 -123 10 105 c5 58 15 118 21 135 l11 29 7 -24 c6 -21 7 -19 8 13 1
20 5 37 11 37 5 0 7 -28 5 -67 -4 -65 -4 -66 5 -18 14 77 20 95 30 95 5 0 7
-17 5 -37 l-4 -38 11 38 c16 53 31 46 25 -10 l-6 -48 12 42 c17 59 22 59 20 0
-1 -29 1 -43 3 -32 3 11 10 37 15 58 5 20 12 37 15 37 3 0 2 -17 -1 -37z
m1195 8 c0 -15 3 -55 6 -87 l6 -60 -41 4 c-30 3 -47 -1 -61 -13 -20 -18 -20
-17 -19 36 1 73 17 112 20 49 2 -41 3 -42 6 -10 6 50 20 59 31 19 l10 -34 1
40 c1 30 4 36 11 25 7 -11 10 -5 10 23 0 20 5 37 10 37 6 0 10 -13 10 -29z
m-2157 -28 c-7 -2 -21 -2 -30 0 -10 3 -4 5 12 5 17 0 24 -2 18 -5z m1139 -7
c16 -12 16 -14 -8 -24 -35 -16 -44 -15 -44 6 0 34 22 41 52 18z m233 -68 c-12
-101 -16 -112 -31 -96 -10 10 -12 30 -7 81 5 58 9 67 25 67 18 0 19 -5 13 -52z
m-757 36 c14 -4 22 -14 22 -29 0 -19 -7 -24 -42 -29 -23 -4 -61 -15 -83 -25
-35 -15 -46 -16 -65 -6 l-23 12 42 42 c35 35 47 41 84 41 23 0 52 -3 65 -6z
m-223 -18 c10 -10 11 -16 2 -25 -22 -22 -62 -5 -51 22 7 21 30 22 49 3z m1636
-93 c-9 -15 -10 -12 -11 17 0 19 4 46 8 60 6 21 7 19 10 -17 2 -24 -1 -51 -7
-60z m-1302 -65 c-1 -112 -4 -142 -10 -113 -8 36 -1 265 7 265 2 0 3 -69 3
-152z m314 145 c3 -5 -6 -16 -19 -26 -23 -17 -24 -17 -24 2 0 23 33 41 43 24z
m-844 -37 c35 -34 40 -81 7 -72 -11 3 -28 6 -37 6 -10 0 -16 7 -15 18 1 14 -9
18 -54 20 -30 2 -59 8 -65 14 -7 8 -6 9 3 4 7 -4 12 -2 12 6 0 48 101 50 149
4z m3080 -52 c10 -71 1 -109 -24 -109 -16 0 -19 9 -19 69 -1 46 3 70 12 73 6
3 12 12 12 21 0 34 12 1 19 -54z m151 24 c-6 -20 -19 -46 -29 -60 -13 -15 -17
-33 -14 -51 3 -17 1 -27 -7 -27 -7 0 -9 8 -5 21 5 15 4 19 -5 14 -6 -4 0 16
15 45 14 28 30 63 36 77 14 37 20 23 9 -19z m-3028 16 c4 -3 0 -20 -9 -37 -9
-19 -18 -27 -21 -19 -3 10 -7 10 -16 -2 -13 -19 -35 -8 -40 20 -2 10 -5 24 -6
29 -1 6 -2 13 -1 17 1 7 80 0 93 -8z m208 1 c-7 -9 -20 -15 -29 -13 -9 1 -22
-1 -29 -6 -14 -9 -30 0 -19 11 4 3 24 9 44 13 21 4 40 8 42 9 2 0 -2 -6 -9
-14z m1680 -4 c0 -5 18 -8 40 -7 44 1 48 -14 7 -28 -17 -6 -35 -6 -52 2 -27
13 -34 42 -10 42 8 0 15 -4 15 -9z m1265 -13 c-13 -41 -35 -68 -83 -98 -50
-31 -59 -31 -47 -3 13 29 14 43 3 43 -6 0 -7 -8 -3 -17 4 -13 3 -15 -5 -7 -22
22 9 62 64 83 68 27 79 26 71 -1z m-3976 -12 c27 -29 24 -60 -6 -64 -16 -2
-26 5 -37 27 -9 16 -16 37 -16 46 0 23 34 18 59 -9z m2593 7 c9 -10 30 -48 47
-84 17 -37 38 -72 46 -79 30 -25 13 -26 -57 -2 -75 25 -233 39 -244 21 -3 -5
-10 -9 -15 -9 -13 0 56 66 79 75 9 4 24 9 32 11 67 14 110 29 110 41 0 7 -4
13 -8 13 -5 0 -17 7 -28 15 -19 14 -19 14 2 15 11 0 28 -8 36 -17z m289 4 c-5
-5 -17 -5 -28 2 -16 9 -15 10 9 9 16 -2 24 -6 19 -11z m-1115 -72 c10 -41 -1
-55 -45 -55 -40 0 -64 23 -34 34 12 5 13 9 4 20 -9 11 -7 17 10 30 28 19 56 6
65 -29z m1859 18 c4 -16 8 -36 10 -45 2 -10 0 -20 -5 -23 -4 -2 -12 18 -17 45
-6 28 -6 50 -2 50 5 0 11 -12 14 -27z m-2645 2 c0 -8 -6 -15 -14 -15 -8 0 -44
-15 -80 -34 -57 -30 -66 -32 -66 -17 0 18 37 41 66 41 8 0 31 9 51 20 45 24
43 24 43 5z m1417 -17 c-3 -8 -6 -5 -6 6 -1 11 2 17 5 13 3 -3 4 -12 1 -19z
m515 -23 c6 -30 -2 -31 -32 -7 -14 11 -19 23 -15 34 10 25 41 6 47 -27z
m-3007 25 c3 -5 -1 -10 -10 -10 -9 0 -13 5 -10 10 3 6 8 10 10 10 2 0 7 -4 10
-10z m2063 -34 c5 -26 -9 -35 -37 -25 -23 9 -23 10 -6 29 21 23 38 21 43 -4z
m1012 14 c0 -5 9 -10 19 -10 11 0 22 -4 26 -10 3 -5 13 -6 21 -3 13 5 15 1 9
-18 -10 -32 -10 -32 -47 -25 -50 10 -62 20 -54 50 6 25 26 37 26 16z m-2384
-12 c6 -7 -99 -17 -106 -11 -2 2 2 8 10 14 14 9 86 7 96 -3z m457 -15 l32 -18
-29 -3 -28 -4 33 -16 c32 -17 38 -28 44 -87 1 -16 10 -57 19 -90 19 -69 19
-75 6 -75 -5 0 -21 22 -35 49 -23 47 -81 103 -135 132 l-25 13 30 6 c27 5 24
7 -22 13 -76 11 -66 49 23 81 51 19 50 19 87 -1z m-472 -12 c-11 -7 -11 -9 0
-13 8 -3 -8 -17 -36 -33 -28 -16 -52 -32 -55 -35 -3 -4 -12 -9 -20 -12 -20 -7
-21 43 -1 56 11 7 11 10 0 16 -9 6 -2 12 22 18 44 13 109 15 90 3z m3148 -60
c-12 -28 -24 -50 -26 -47 -2 2 6 27 18 55 12 29 23 50 25 48 3 -2 -5 -27 -17
-56z m-3724 39 c-3 -5 -19 -19 -36 -31 -31 -22 -31 -22 -20 -1 11 21 38 41 54
42 5 0 6 -4 2 -10z m176 -5 l56 0 17 -69 c16 -67 16 -70 -3 -88 -11 -10 -25
-37 -31 -61 -6 -23 -12 -46 -14 -51 -1 -6 -10 10 -20 35 -10 24 -40 83 -68
131 -53 92 -58 126 -16 111 13 -4 48 -8 79 -8z m2962 -10 c5 -12 11 -15 15 -9
10 16 52 24 52 10 0 -10 -83 -46 -107 -46 -17 0 -52 40 -47 53 3 8 20 13 42
13 27 0 39 -6 45 -21z m-532 -19 c67 -21 109 -44 109 -61 0 -14 -3 -14 -22 -1
-45 28 -154 58 -220 60 -38 1 -68 -2 -68 -6 0 -4 -13 -8 -30 -8 -43 0 -37 18
8 25 20 4 42 8 47 11 18 7 129 -6 176 -20z m-1975 -1 c20 -20 8 -36 -21 -29
-13 3 -33 1 -44 -5 -19 -10 -21 -9 -18 10 6 35 57 50 83 24z m2744 -30 c3 -5
-5 -11 -17 -13 -21 -3 -63 28 -63 48 0 11 74 -21 80 -35z m300 5 c0 -13 -1
-13 -10 0 -5 8 -10 22 -10 30 0 13 1 13 10 0 5 -8 10 -22 10 -30z m-1948 3
c24 -21 25 -72 1 -71 -10 0 -30 -3 -45 -7 -24 -6 -28 -4 -28 15 0 16 4 20 15
16 8 -3 15 -1 15 4 0 6 -4 10 -10 10 -11 0 -14 33 -3 43 11 12 36 8 55 -10z
m-853 -13 c19 -5 38 -15 43 -22 11 -19 10 -88 -2 -88 -5 0 -10 -8 -11 -17 0
-10 -12 5 -26 32 -15 31 -22 40 -19 23 8 -37 -3 -35 -36 6 -52 65 -32 90 51
66z m-89 -128 c-6 -2 -10 -12 -10 -23 0 -10 -4 -19 -10 -19 -5 0 -10 14 -10
30 0 17 -7 47 -16 68 -14 36 -14 38 7 55 l23 18 13 -63 c8 -40 9 -64 3 -66z
m1780 -46 c-6 -56 -15 -142 -20 -192 -5 -50 -14 -103 -20 -118 -14 -38 -13
-46 8 -47 11 -1 9 -4 -8 -9 -39 -12 -50 -11 -44 4 4 11 0 13 -15 9 -15 -4 -21
-1 -21 11 0 8 11 18 25 22 13 3 28 11 33 17 13 17 24 79 13 72 -5 -3 -19 11
-31 31 l-22 35 23 115 c23 110 33 133 42 97 4 -14 5 -13 6 4 0 12 -4 23 -11
25 -7 3 -9 12 -5 23 11 26 18 13 26 -47 l7 -53 9 90 c7 64 10 79 13 51 2 -22
-2 -85 -8 -140z m1347 147 c-4 -29 -34 -47 -54 -31 -22 18 5 58 40 58 13 0 17
-6 14 -27z m-1526 -79 c-7 -25 -7 -42 0 -50 5 -6 23 -56 40 -110 17 -55 42
-113 55 -131 39 -52 28 -55 -48 -13 -54 30 -85 40 -118 40 -35 0 -59 9 -103
36 -53 33 -65 54 -32 54 8 0 11 7 8 20 -6 21 11 28 22 10 5 -8 11 -7 21 1 8 6
14 8 14 5 0 -4 15 7 33 24 24 22 39 29 59 26 16 -2 30 -1 32 3 7 11 -31 64
-51 73 -16 7 -15 8 2 4 11 -2 28 -7 38 -11 14 -6 17 -2 17 26 0 19 4 45 8 59
l7 25 3 -27 c2 -15 -1 -44 -7 -64z m40 37 c10 14 5 -29 -8 -75 -12 -41 -23 12
-16 71 7 48 8 52 11 24 3 -26 6 -31 13 -20z m-1378 -33 c20 -27 20 -28 2 -48
-22 -24 -43 -25 -72 -5 -25 18 -49 85 -39 110 5 15 10 14 48 -7 22 -13 50 -35
61 -50z m807 61 c0 -6 -6 -17 -14 -24 -12 -12 -15 -11 -19 5 -4 17 4 27 26 29
4 1 7 -4 7 -10z m-1120 -97 c0 -35 -4 -61 -9 -58 -4 3 -13 -6 -19 -19 -12 -26
-40 -33 -59 -14 -8 8 -4 22 13 52 13 23 24 51 24 62 0 11 7 31 16 44 23 32 34
12 34 -67z m1874 82 c24 -9 21 -118 -4 -164 -23 -43 -25 -36 -5 20 16 46 20
91 5 53 -15 -37 -20 -27 -20 37 0 33 2 60 4 60 2 0 11 -3 20 -6z m302 -83
c-20 -39 -34 -71 -31 -71 2 0 21 32 40 70 35 69 58 91 48 48 l-4 -23 13 22
c13 22 14 22 30 4 9 -11 15 -21 14 -23 -2 -1 -6 -16 -9 -33 -5 -26 -4 -25 13
10 23 47 26 20 5 -40 -23 -63 -10 -52 21 19 18 42 32 62 38 56 11 -11 -5 -71
-44 -157 -23 -50 -26 -63 -14 -63 8 0 12 5 9 10 -3 6 -1 10 5 10 6 0 8 5 5 10
-3 6 -2 10 4 10 6 0 21 35 35 78 13 42 25 68 25 56 3 -78 -167 -439 -198 -420
-4 3 -15 -8 -25 -25 -9 -16 -22 -29 -27 -29 -11 0 3 30 34 72 12 15 17 31 13
35 -4 5 -13 1 -19 -8 -31 -41 -87 -102 -87 -93 0 5 15 39 33 77 40 80 32 91
-9 12 -16 -30 -33 -55 -38 -55 -5 0 -6 28 -3 63 6 58 6 60 -7 32 -8 -16 -22
-52 -31 -78 -22 -62 -60 -107 -91 -107 -24 0 -24 1 -9 30 9 17 13 35 10 40 -9
14 32 100 63 135 19 21 20 24 5 11 -28 -23 -30 -13 -5 22 31 45 36 59 9 27
-14 -16 -29 -27 -33 -23 -4 4 5 17 20 29 15 12 23 26 19 32 -4 7 1 6 10 -2 9
-7 18 -11 18 -7 1 3 2 10 3 14 0 4 18 24 38 45 32 32 76 97 65 97 -2 0 -18
-22 -36 -50 -18 -27 -33 -50 -35 -50 -1 0 -2 9 -2 19 0 11 5 19 11 18 5 -1 9
6 9 15 -1 10 3 15 9 11 6 -4 8 0 4 11 -5 11 -3 15 5 10 8 -5 9 -2 5 9 -3 10
-3 17 1 17 12 0 42 61 35 72 -4 7 -1 8 7 3 10 -6 12 -4 7 9 -4 10 -3 15 3 11
5 -3 16 8 25 26 9 17 19 29 21 26 3 -3 -11 -37 -30 -76z m-2866 28 c25 -17 38
-59 19 -59 -5 0 -27 16 -49 36 -40 36 -55 37 -23 2 14 -15 14 -19 3 -16 -25 5
-34 41 -14 55 18 13 22 12 64 -18z m1760 -28 c0 -14 -6 -17 -25 -13 -29 5 -34
29 -7 35 23 5 32 -1 32 -22z m-1145 -17 c-8 -20 -15 -39 -15 -42 0 -3 -3 -3
-6 0 -6 7 22 78 31 78 3 0 -2 -16 -10 -36z m-315 -149 c0 -17 -2 -17 -10 -5
-8 13 -10 12 -10 -2 0 -22 -13 -23 -30 -3 -22 27 -21 10 4 -51 32 -80 39 -124
22 -124 -7 0 -18 6 -23 13 -13 16 -83 194 -83 210 0 7 16 39 36 71 l37 58 28
-74 c16 -40 29 -82 29 -93z m3890 145 c-15 -27 -42 -40 -87 -40 -31 1 -35 3
-20 11 9 5 17 16 17 24 0 9 15 15 48 18 26 2 48 4 50 5 1 1 -2 -7 -8 -18z
m-417 -2 c-8 -14 -10 -19 -12 -43 -2 -27 -21 -15 -21 13 0 32 7 42 27 42 9 0
11 -5 6 -12z m-1907 -9 c3 -6 2 -15 -2 -19 -12 -12 -38 5 -30 19 9 14 23 14
32 0z m2202 2 c10 -6 9 -10 -7 -14 -21 -5 -36 5 -24 17 8 8 15 7 31 -3z
m-2339 -15 c18 -22 10 -80 -11 -84 -21 -4 -54 58 -45 82 8 20 41 21 56 2z
m585 6 c3 -5 -1 -9 -9 -9 -8 0 -15 4 -15 9 0 4 4 8 9 8 6 0 12 -4 15 -8z
m-901 -29 c15 -13 18 -14 12 -3 -6 12 -5 12 5 3 7 -6 9 -16 6 -22 -11 -17 -34
-13 -46 8 -19 36 -9 42 23 14z m77 -47 c0 -41 -16 -21 -24 29 -6 37 -5 39 9
21 8 -11 15 -33 15 -50z m1764 49 c-4 -8 -8 -15 -10 -15 -2 0 -4 7 -4 15 0 8
4 15 10 15 5 0 7 -7 4 -15z m548 -47 c-8 -10 -21 -18 -29 -18 -11 0 -9 7 6 26
12 15 21 34 22 43 1 9 4 5 8 -9 5 -17 3 -31 -7 -42z m-2022 -9 c0 -27 -4 -49
-10 -49 -5 0 -10 25 -10 56 0 34 4 53 10 49 6 -3 10 -28 10 -56z m2319 51 c40
0 52 -3 41 -10 -17 -11 -127 -2 -150 12 -10 6 -4 8 19 4 18 -3 59 -6 90 -6z
m-2527 -241 c0 -86 -12 -134 -26 -110 -10 15 -29 14 -20 -1 5 -9 4 -10 -3 -3
-14 13 -33 95 -33 139 0 26 6 38 22 47 l23 12 -24 11 c-21 9 -23 15 -17 54 3
25 6 52 6 61 1 9 17 -15 37 -53 32 -65 35 -76 35 -157z m1102 215 c9 -3 16
-15 16 -26 0 -18 -4 -20 -32 -12 -18 4 -52 8 -75 8 -51 1 -49 4 14 21 60 16
58 16 77 9z m651 -51 c6 -49 5 -53 -14 -53 -12 0 -21 7 -21 15 0 15 23 95 26
92 1 -1 5 -26 9 -54z m-1651 38 c3 -4 -6 -13 -19 -19 -20 -9 -25 -9 -25 2 0
24 32 37 44 17z m-214 -49 c0 -13 -4 -20 -10 -17 -5 3 -10 21 -10 38 0 24 3
28 10 17 5 -8 10 -25 10 -38z m947 6 c-3 -8 -6 -5 -6 6 -1 11 2 17 5 13 3 -3
4 -12 1 -19z m-1927 -7 c0 -6 -4 -13 -10 -16 -5 -3 -10 1 -10 9 0 9 5 16 10
16 6 0 10 -4 10 -9z m227 -40 c49 -23 71 -55 52 -77 -17 -20 -83 -54 -106 -54
-11 0 -34 13 -53 29 l-35 29 18 36 c15 33 43 54 72 55 6 0 29 -8 52 -18z
m1453 -17 c43 -28 65 -36 98 -36 23 1 52 -3 65 -8 17 -7 8 -9 -38 -9 -54 -1
-66 4 -129 44 -38 25 -65 45 -60 45 5 0 34 -16 64 -36z m1340 28 c0 -16 -32
-52 -46 -52 -20 0 -17 16 8 40 22 21 38 26 38 12z m-1420 -6 c0 -2 -28 -14
-62 -25 -67 -23 -71 -16 -5 10 42 17 67 22 67 15z m1434 -31 c-4 -8 -11 -15
-16 -15 -6 0 -5 6 2 15 7 8 14 15 16 15 2 0 1 -7 -2 -15z m-884 -40 c0 -8 -4
-15 -10 -15 -5 0 -10 7 -10 15 0 8 5 15 10 15 6 0 10 -7 10 -15z m-2140 -21
c13 -33 14 -31 -16 -37 -20 -3 -28 1 -37 20 -9 19 -8 26 4 34 24 15 39 10 49
-17z m377 12 c-3 -6 -11 -9 -18 -7 -8 2 -20 4 -26 4 -28 1 -11 14 17 14 18 0
29 -5 27 -11z m985 -14 c19 -20 20 -24 5 -19 -10 4 -16 3 -12 -2 3 -5 1 -12
-3 -15 -5 -3 -15 6 -22 19 -7 14 -18 25 -23 25 -6 0 -6 -5 0 -12 14 -17 23
-58 14 -58 -5 0 -16 9 -25 19 -10 11 -31 25 -47 31 -42 18 -21 38 41 38 39 0
53 -5 72 -26z m1712 12 c10 -25 7 -44 -7 -44 -8 0 -13 12 -12 30 0 33 9 39 19
14z m-2326 -37 c31 -44 102 -196 78 -164 -11 14 -15 15 -20 5 -4 -9 -5 -9 -4
2 1 8 -6 29 -16 45 -9 17 -15 22 -12 13 11 -38 -6 -15 -34 43 -16 34 -26 68
-23 77 5 11 3 13 -7 7 -9 -5 -11 -4 -6 3 10 17 12 16 44 -31z m2079 22 c-2
-23 34 -57 71 -64 12 -2 27 -7 33 -11 6 -3 15 0 20 7 7 12 11 11 25 -3 16 -15
16 -18 0 -33 -13 -13 -20 -14 -30 -6 -10 9 -15 8 -20 -5 -5 -12 -9 -14 -20 -5
-7 6 -16 8 -19 4 -4 -3 -7 -1 -7 6 0 8 -7 10 -20 6 -16 -5 -20 -2 -20 15 0 13
-4 19 -11 14 -6 -3 -14 -2 -18 4 -3 6 -13 12 -20 14 -17 4 -51 35 -51 46 0 18
26 32 57 32 27 0 32 -3 30 -21z m-902 -19 c10 -11 14 -20 9 -20 -5 0 -15 9
-22 20 -7 11 -11 20 -9 20 2 0 12 -9 22 -20z m225 -11 c0 -28 -1 -29 -16 -14
-9 9 -23 14 -30 11 -8 -3 -14 -2 -14 2 0 14 24 32 42 32 13 0 18 -8 18 -31z
m-1160 -31 c0 -53 0 -53 -15 -25 -10 20 -12 35 -5 52 14 38 20 30 20 -27z
m480 2 l-8 -35 -1 45 c-1 27 3 40 8 35 6 -6 6 -25 1 -45z m-932 10 c28 -17 38
-32 30 -43 -2 -2 4 -12 12 -23 14 -18 14 -18 -2 -5 -10 7 -15 18 -11 24 4 6 1
7 -8 1 -23 -14 -42 -14 -30 0 7 8 4 12 -10 12 -13 0 -18 -5 -14 -16 4 -13 4
-13 -8 0 -16 19 -37 24 -37 8 0 -9 -4 -8 -10 2 -9 13 -10 13 -10 0 0 -13 -1
-13 -11 0 -8 11 -9 8 -4 -14 5 -26 4 -28 -9 -17 -8 7 -21 9 -27 5 -8 -4 -9 -3
-5 4 4 7 3 12 -2 12 -22 0 3 43 32 56 44 19 86 17 124 -6z m702 10 c0 -10 -41
-31 -49 -24 -1 1 3 10 10 18 16 18 39 21 39 6z m1460 -10 c27 -14 38 -26 37
-40 -1 -13 -6 -19 -15 -15 -7 2 -11 1 -8 -4 3 -5 -1 -12 -10 -15 -12 -4 -14
-1 -9 13 5 16 2 18 -15 14 -11 -3 -20 -9 -20 -14 0 -20 -20 -7 -21 14 0 12 -3
16 -6 10 -3 -9 -10 -10 -24 -3 -14 8 -19 7 -19 -1 0 -9 -4 -8 -14 0 -12 10
-13 8 -8 -11 5 -22 5 -22 -12 -5 -10 9 -22 17 -29 17 -6 0 -2 -7 9 -15 10 -8
15 -15 9 -15 -5 0 -3 -5 5 -11 12 -8 10 -9 -10 -7 -14 2 -23 6 -20 10 3 4 -4
14 -14 21 -19 14 -18 15 13 22 22 5 29 10 21 15 -19 12 38 39 83 40 21 0 55
-9 77 -20z m456 4 c-3 -9 -6 -20 -6 -25 0 -11 -60 -12 -79 0 -19 12 25 41 62
41 22 0 28 -4 23 -16z m-1347 -11 c0 -5 -4 -17 -9 -28 -8 -18 -9 -17 -9 8 -1
15 4 27 9 27 6 0 10 -3 9 -7z m-509 -9 c0 -15 -29 -29 -62 -29 -38 0 -40 11
-4 25 24 10 66 13 66 4z m470 -28 c0 -40 -8 -66 -21 -66 -10 0 -12 44 -3 78 9
34 24 26 24 -12z m-1474 13 c4 -7 -1 -16 -10 -21 -9 -5 -16 -18 -16 -28 0 -14
-7 -20 -24 -20 -13 0 -26 -7 -30 -15 -3 -8 -12 -12 -21 -9 -8 3 -15 1 -15 -6
0 -7 -8 -9 -20 -5 -11 4 -20 2 -20 -4 0 -19 -20 -12 -21 7 0 10 -3 12 -6 5 -4
-13 -53 -19 -53 -7 0 3 5 15 11 27 10 22 10 22 -10 0 -23 -27 -30 -29 -27 -7
3 22 25 33 59 29 43 -6 159 25 153 41 -2 6 -2 15 1 18 10 10 41 7 49 -5z
m1092 -4 c20 -14 21 -14 16 0 -3 8 -2 15 4 15 11 0 22 -35 21 -65 -1 -17 -2
-16 -10 5 -6 19 -8 12 -4 -25 3 -41 2 -47 -8 -32 -75 115 -76 117 -59 117 10
0 27 -7 40 -15z m-418 -45 c0 -21 -5 -42 -11 -45 -6 -5 -9 10 -8 44 3 58 19
59 19 1z m771 -54 c22 -23 -7 -146 -31 -131 -5 3 -10 -1 -10 -9 0 -21 -10 -20
-26 2 -13 16 -14 16 -7 -3 7 -21 5 -21 -17 9 -8 11 -10 17 -4 13 8 -4 13 21
17 79 4 55 11 90 21 99 13 13 14 11 10 -22 -4 -36 -3 -35 14 12 l17 50 3 -45
c2 -25 7 -49 13 -54z m-423 33 c23 -10 42 -20 42 -22 0 -3 -25 2 -57 10 -55
14 -67 14 -107 -3 -13 -5 -17 -4 -13 3 5 7 -1 9 -15 5 -15 -4 -19 -2 -14 7 21
33 88 33 164 0z m162 -9 c-1 -14 -20 -33 -27 -26 -4 5 -2 11 5 13 10 4 9 10
-5 25 -18 20 -18 21 5 7 12 -8 22 -16 22 -19z m600 -10 c-6 -4 -12 -11 -12
-16 -1 -18 -10 -34 -21 -34 -5 0 -2 9 8 20 13 14 14 20 5 20 -9 0 -7 6 6 19
10 10 21 14 23 8 2 -5 -2 -13 -9 -17z m506 15 c-7 -20 27 -28 90 -22 27 3 43
3 36 0 -6 -3 -10 -8 -7 -13 3 -4 -4 -10 -15 -13 -11 -3 -20 0 -20 6 0 8 -3 8
-8 2 -8 -12 -72 -15 -72 -3 0 4 -5 8 -11 8 -6 0 -23 10 -37 21 l-27 22 33 -6
c18 -4 32 -2 32 3 0 6 3 10 6 10 3 0 4 -7 0 -15z m-2126 -8 c3 0 25 3 48 7 31
6 47 4 55 -4 9 -10 6 -11 -16 -7 -20 3 -25 1 -18 -6 18 -18 12 -26 -15 -21
-17 3 -23 1 -19 -7 5 -8 1 -7 -15 1 -18 10 -24 9 -31 -1 -8 -13 -13 -5 -10 14
1 4 -7 3 -17 -2 -16 -8 -21 -6 -31 15 -11 25 -11 25 27 18 20 -3 39 -7 42 -7z
m693 -32 c-22 -14 -85 -37 -90 -31 -5 5 62 36 77 36 6 0 8 4 5 10 -3 6 1 7 10
4 14 -6 14 -8 -2 -19z m494 -44 c-1 -27 -5 -47 -9 -44 -9 5 -10 39 -2 71 10
35 14 26 11 -27z m-263 23 c11 -28 6 -54 -9 -54 -14 0 -35 37 -35 61 0 15 37
10 44 -7z m96 -3 c18 -35 11 -43 -20 -21 -16 12 -30 26 -30 31 0 17 39 9 50
-10z m-440 -17 c13 -32 -5 -61 -25 -44 -10 8 -14 4 -19 -16 -6 -21 -9 -24 -21
-14 -12 10 -15 9 -15 -4 0 -21 -16 -20 -30 2 -11 16 -11 16 -6 0 6 -19 4 -20
-103 -37 -74 -12 -224 -78 -214 -95 3 -6 3 -8 -2 -4 -4 4 -20 -1 -35 -12 -35
-25 -39 -25 -33 0 3 11 8 20 12 20 4 0 16 7 27 16 17 14 17 15 1 10 -17 -5
-17 -5 0 19 10 13 21 25 24 25 4 0 37 21 74 46 75 51 144 79 180 71 14 -2 25
0 25 4 0 13 87 11 113 -2 21 -10 21 -10 3 5 -11 9 -25 16 -30 17 -16 1 26 17
47 18 10 1 22 -10 27 -25z m1978 -5 c-6 -4 -19 -4 -31 -1 -19 5 -19 6 -2 18
13 10 20 10 30 1 8 -8 9 -14 3 -18z m-2703 11 c-8 -13 -55 -13 -75 0 -11 7 -2
10 33 10 30 0 46 -4 42 -10z m1755 -27 c2 -2 0 -7 -6 -11 -6 -4 -18 -18 -27
-32 -15 -22 -17 -23 -18 -5 0 20 -1 20 -9 0 -8 -18 -9 -17 -9 7 -1 17 5 28 17
31 16 4 16 5 0 6 -10 0 -22 -8 -28 -19 -10 -19 -40 -18 -40 2 0 6 6 6 14 -1
12 -10 13 -9 9 8 -4 15 1 20 24 24 27 4 63 -1 73 -10z m-893 -11 c-10 -9 -25
-11 -52 -6 -47 8 -27 25 28 22 32 -2 35 -4 24 -16z m1017 -1 c3 -5 14 -7 25
-4 30 8 86 -13 171 -63 80 -47 91 -58 68 -67 -7 -3 -1 -6 13 -6 27 -1 51 -22
55 -47 3 -21 -27 -17 -54 9 l-25 22 12 -23 c21 -39 6 -35 -22 6 -20 31 -37 42
-88 59 -35 12 -81 24 -101 28 -21 4 -35 11 -32 16 3 5 -6 5 -20 -1 -16 -6 -35
-6 -50 0 -14 5 -27 5 -32 0 -5 -5 -19 -7 -30 -4 -16 4 -20 12 -17 32 3 27 3
27 -12 -3 -8 -16 -14 -23 -15 -14 0 8 7 24 15 35 8 10 15 15 15 11 0 -5 10 -1
22 7 24 17 93 22 102 7z m564 -19 c2 -8 -2 -10 -14 -5 -14 5 -16 2 -10 -22 6
-22 4 -26 -8 -22 -9 4 -16 2 -16 -3 0 -21 -18 -9 -24 16 -5 19 -2 30 11 40 21
16 55 14 61 -4z m172 8 c11 -7 7 -10 -17 -10 -17 0 -35 5 -38 10 -8 13 35 13
55 0z m-460 -15 c-7 -9 -15 -13 -19 -10 -3 3 1 10 9 15 21 14 24 12 10 -5z
m110 -3 c1 -16 2 -16 14 1 10 12 21 15 44 11 37 -7 44 -28 24 -69 l-15 -30 -9
25 -9 25 -13 -24 -13 -24 -11 32 c-14 39 -20 39 -37 -1 l-14 -33 -1 38 c0 34
-2 37 -19 27 -28 -14 -31 -13 -31 13 0 19 6 22 45 24 36 2 45 -1 45 -15z
m-821 -28 c-7 -16 -12 -36 -11 -44 1 -8 -1 -10 -4 -4 -3 7 -14 10 -24 7 -11
-3 -20 -2 -20 1 0 8 64 74 68 71 1 -1 -3 -15 -9 -31z m1125 27 c6 -10 -16 -61
-26 -61 -10 0 -10 54 -1 63 9 10 21 9 27 -2z m-1453 -21 l24 -19 -37 -1 c-20
0 -40 5 -44 11 -3 6 -15 9 -25 6 -11 -3 -19 -1 -19 3 0 8 25 16 61 19 9 0 27
-8 40 -19z m1579 -10 c19 -17 40 -30 46 -30 7 0 19 -6 26 -13 7 -7 26 -20 41
-30 16 -10 25 -23 21 -29 -5 -7 -2 -9 7 -6 8 3 23 -4 34 -15 20 -19 20 -19 -5
-12 -14 4 -41 15 -60 25 -19 9 -61 22 -93 29 -34 7 -55 17 -51 23 4 7 0 7 -12
0 -11 -5 -34 -7 -51 -5 -27 4 -33 10 -33 29 0 32 34 64 68 64 15 -1 42 -14 62
-30z m-2655 -10 c3 -5 -1 -10 -9 -10 -9 0 -16 5 -16 10 0 6 4 10 9 10 6 0 13
-4 16 -10z m-447 -56 c-2 -14 -14 -19 -47 -22 -52 -4 -53 14 -1 40 37 19 54
12 48 -18z m32 16 c0 -11 -4 -20 -9 -20 -5 0 -11 9 -14 20 -3 13 0 20 9 20 8
0 14 -9 14 -20z m30 -6 c0 -8 -4 -12 -10 -9 -5 3 -10 13 -10 21 0 8 5 12 10 9
6 -3 10 -13 10 -21z m966 4 c23 -18 26 -19 14 -4 -14 19 -13 19 38 13 61 -7
106 -31 121 -63 8 -19 7 -22 -4 -17 -10 3 -15 -2 -15 -16 0 -12 -2 -21 -4 -21
-2 0 -11 -3 -20 -6 -11 -4 -16 0 -16 12 0 11 -5 26 -11 34 -7 11 -8 6 -4 -19
7 -35 -4 -51 -35 -51 -11 0 -15 12 -15 44 0 25 -5 50 -12 57 -9 9 -9 2 -1 -30
13 -52 2 -67 -39 -56 -15 5 -31 8 -35 7 -5 -1 -8 2 -8 8 0 5 -7 7 -15 3 -10
-3 -15 -1 -13 7 2 7 -3 15 -11 18 -8 3 -11 0 -7 -7 5 -7 1 -9 -8 -5 -11 4 -16
20 -16 53 0 26 3 51 7 54 15 16 81 6 109 -15z m1244 -7 c-5 -11 -10 -33 -10
-50 0 -28 -2 -30 -25 -21 -18 7 -25 6 -25 -3 0 -6 -12 -17 -25 -24 -25 -11
-26 -11 -20 25 4 28 3 32 -4 17 -5 -11 -10 -31 -10 -44 -1 -16 -5 -21 -15 -18
-8 3 -17 1 -20 -6 -4 -7 -4 8 -1 33 3 29 2 40 -4 31 -5 -8 -16 -11 -25 -8 -39
15 32 68 89 66 11 0 30 2 43 6 19 6 21 4 15 -11 -5 -14 -2 -13 15 4 27 27 36
28 22 3z m-1437 -6 c-12 -8 -29 -35 -39 -60 -12 -32 -20 -43 -28 -35 -5 5 -20
10 -33 10 -44 0 -18 41 48 75 50 27 86 33 52 10z m681 4 c14 -7 27 -18 30 -26
4 -9 2 -11 -6 -7 -7 5 -27 8 -45 7 -18 0 -33 3 -33 7 0 4 -12 5 -27 3 -24 -3
-23 -2 7 11 46 18 45 18 74 5z m806 -41 c0 -35 -2 -39 -22 -36 -26 3 -35 36
-18 67 17 33 40 15 40 -31z m130 31 c47 -20 86 -61 76 -78 -3 -4 -18 -7 -33
-5 -15 1 -33 2 -39 3 -6 1 -17 15 -24 31 -15 37 -25 34 -11 -4 13 -33 4 -56
-22 -56 -34 0 -57 29 -57 71 0 45 9 53 47 39 26 -9 27 -9 9 5 -28 21 -3 19 54
-6z m-1553 -46 c-6 -62 -16 -73 -64 -73 -38 0 -42 18 -19 74 15 36 39 55 70
56 17 0 18 -6 13 -57z m2763 37 c12 -8 10 -10 -10 -9 -14 1 -36 5 -50 9 -23 7
-22 8 10 9 19 0 42 -4 50 -9z m-637 -28 c-3 -12 -9 -22 -14 -22 -12 0 -11 7 2
32 13 25 20 19 12 -10z m-1573 11 c-1 -12 -45 -41 -74 -49 -22 -5 -26 -3 -26
15 0 13 9 25 23 31 27 11 77 13 77 3z m1465 -23 c0 -19 -5 -25 -22 -25 -12 0
-25 -4 -29 -8 -4 -4 -13 -2 -20 4 -9 8 -11 5 -7 -10 5 -18 1 -21 -31 -21 -20
0 -36 3 -36 8 0 19 32 51 45 45 11 -4 13 -1 8 13 -5 13 -3 16 10 11 9 -3 17
-2 17 4 0 6 15 9 33 7 27 -2 32 -7 32 -28z m78 9 c-6 -20 -7 -20 -18 -6 -11
15 -13 15 -22 -5 -10 -22 -10 -22 -15 5 -5 25 -3 27 27 27 29 0 32 -3 28 -21z
m148 5 c24 -8 55 -18 68 -20 26 -5 81 -32 81 -39 0 -2 -7 -2 -15 1 -9 4 -15 0
-15 -7 -1 -9 -8 -5 -19 9 -20 23 -37 30 -25 10 5 -8 1 -8 -10 1 -15 13 -19 13
-27 0 -8 -13 -13 -6 -10 14 0 4 -3 7 -9 7 -5 0 -10 -4 -10 -10 0 -5 -7 -10
-15 -10 -16 0 -19 10 -7 26 4 5 -3 -1 -15 -13 -28 -29 -32 -29 -27 0 2 12 2
16 -2 10 -8 -18 -24 -16 -24 3 0 10 -6 14 -15 10 -15 -5 -20 5 -8 17 11 12 59
8 104 -9z m639 -3 c0 -13 -49 -20 -57 -8 -3 6 -1 7 5 3 7 -4 12 -2 12 3 0 6 9
11 20 11 11 0 20 -4 20 -9z m-3626 -16 c6 -17 -9 -21 -19 -5 -4 6 -16 8 -27 4
-14 -4 -18 -2 -14 5 10 16 53 13 60 -4z m1381 -5 c22 -25 21 -26 -32 -33 -28
-3 -43 -1 -43 6 0 6 -7 2 -15 -9 -9 -11 -14 -14 -15 -6 0 19 46 62 68 62 10 0
27 -9 37 -20z m30 0 c3 -5 2 -10 -4 -10 -5 0 -13 5 -16 10 -3 6 -2 10 4 10 5
0 13 -4 16 -10z m-1050 -40 c-3 -5 -13 -10 -21 -10 -8 0 -14 5 -14 10 0 6 9
10 21 10 11 0 17 -4 14 -10z m1175 3 c0 -13 -14 -27 -39 -41 -34 -20 -50 5
-20 31 21 17 59 24 59 10z m227 -10 c2 -6 -4 -16 -15 -22 -23 -12 -59 9 -48
28 10 15 58 10 63 -6z m1832 1 c49 -10 26 -24 -40 -24 -55 0 -69 6 -52 23 8 9
51 9 92 1z m-4044 -23 c6 -11 -12 -17 -82 -26 -49 -6 -140 2 -130 11 18 18
202 31 212 15z m3890 -14 c39 -7 66 -15 60 -19 -18 -11 -339 -20 -354 -10 -8
6 -11 17 -8 26 5 13 25 16 119 15 62 0 145 -6 183 -12z m-2495 -72 c0 -16 -62
-21 -109 -8 -23 6 -23 7 -5 14 10 4 40 8 67 8 35 1 47 -3 47 -14z m1053 -1
c-7 -18 -74 -16 -81 4 -2 8 10 12 42 12 37 0 44 -3 39 -16z m-73 -45 c9 -5
-13 -9 -57 -9 -61 0 -71 2 -67 15 5 12 17 14 58 9 28 -4 58 -10 66 -15z m1173
-16 c-7 -2 -19 -2 -25 0 -7 3 -2 5 12 5 14 0 19 -2 13 -5z m-1116 -9 c-3 -3
-12 -4 -19 -1 -8 3 -5 6 6 6 11 1 17 -2 13 -5z m934 -14 c-14 -12 -39 -20 -65
-21 -22 0 -49 -2 -58 -4 -22 -4 -23 9 -2 29 11 12 34 16 82 16 l67 -1 -24 -19z
m-421 -11 c0 -5 -9 -9 -20 -9 -22 0 -27 16 -7 23 15 5 27 -1 27 -14z m-215
-17 c22 -4 35 -10 30 -14 -15 -9 -145 3 -139 13 6 11 53 11 109 1z m-685 -52
c0 -14 -20 -22 -37 -16 -12 5 -13 9 -3 21 11 14 40 10 40 -5z m-676 4 c36 -14
12 -24 -54 -24 -38 0 -70 4 -70 9 0 9 14 11 92 19 9 1 23 -1 32 -4z m1085 -33
c12 -8 9 -11 -12 -16 -31 -8 -94 1 -102 15 -8 13 95 13 114 1z"/>
<path d="M2920 4400 c0 -6 9 -18 19 -27 11 -9 18 -20 15 -25 -3 -4 0 -8 5 -8
6 0 11 -5 11 -11 0 -8 -11 -9 -31 -5 -27 5 -30 4 -19 -9 7 -8 18 -15 26 -15
13 0 54 38 54 51 0 3 -18 18 -40 33 -22 14 -40 22 -40 16z"/>
<path d="M2980 4406 c0 -2 8 -10 18 -17 15 -13 16 -12 3 4 -13 16 -21 21 -21
13z"/>
<path d="M2778 4383 c7 -3 16 -2 19 1 4 3 -2 6 -13 5 -11 0 -14 -3 -6 -6z"/>
<path d="M2702 4358 c-7 -7 -12 -18 -12 -24 0 -43 162 -55 173 -13 6 21 -8 26
-19 8 -7 -12 -118 -8 -130 4 -4 4 -1 13 6 22 15 18 -1 20 -18 3z"/>
<path d="M3025 4351 c-3 -7 -2 -10 3 -9 5 2 19 -8 30 -22 12 -14 21 -20 22
-14 0 18 -47 57 -55 45z"/>
<path d="M3108 4270 c38 -23 41 -52 8 -69 -34 -19 -76 4 -90 47 -12 35 -26 33
-26 -2 0 -57 76 -94 125 -62 33 22 33 59 -1 85 -15 12 -32 21 -38 21 -6 0 4
-9 22 -20z"/>
<path d="M2870 4196 c0 -2 7 -7 16 -10 8 -3 12 -2 9 4 -6 10 -25 14 -25 6z"/>
<path d="M2949 4172 c72 -36 64 -77 -14 -68 -30 4 -48 14 -72 41 -37 41 -41
39 -17 -10 16 -35 43 -50 107 -61 38 -6 66 -25 141 -93 34 -30 31 -26 -15 28
-30 36 -53 72 -51 82 4 22 -69 99 -94 99 -13 0 -8 -6 15 -18z"/>
<path d="M3295 4080 c10 -11 20 -20 23 -20 3 0 -3 9 -13 20 -10 11 -20 20 -23
20 -3 0 3 -9 13 -20z"/>
<path d="M3440 3885 c13 -14 26 -25 28 -25 3 0 -5 11 -18 25 -13 14 -26 25
-28 25 -3 0 5 -11 18 -25z"/>
<path d="M3268 3859 c-24 -13 -23 -46 1 -59 27 -14 66 -13 80 3 8 11 5 13 -19
9 -29 -4 -60 11 -60 30 0 5 10 13 23 18 12 5 15 9 7 9 -8 0 -23 -4 -32 -10z"/>
<path d="M3239 3774 c46 -43 90 -83 98 -88 8 -4 -22 27 -67 70 -45 44 -90 83
-99 88 -9 5 22 -26 68 -70z"/>
<path d="M3486 3837 c3 -10 9 -15 12 -12 3 3 0 11 -7 18 -10 9 -11 8 -5 -6z"/>
<path d="M3588 3844 c-5 -4 -8 -20 -8 -35 0 -38 54 -79 103 -79 34 0 39 -4 62
-50 39 -77 39 -59 0 26 -19 42 -35 79 -35 82 0 3 -5 1 -12 -6 -29 -29 -94 -1
-100 44 -2 14 -6 22 -10 18z"/>
<path d="M3453 3780 c6 -22 37 -25 37 -3 0 15 -2 16 -10 3 -9 -13 -11 -13 -21
0 -9 13 -10 13 -6 0z"/>
<path d="M3511 3764 c0 -11 3 -14 6 -6 3 7 2 16 -1 19 -3 4 -6 -2 -5 -13z"/>
<path d="M3578 3733 c7 -3 16 -2 19 1 4 3 -2 6 -13 5 -11 0 -14 -3 -6 -6z"/>
<path d="M3553 3710 c1 -15 13 -30 30 -40 26 -14 29 -14 42 4 16 21 11 36 -6
19 -15 -15 -45 -5 -58 20 -11 22 -11 22 -8 -3z"/>
<path d="M3808 3633 c6 -11 18 -26 27 -33 13 -11 15 -10 9 4 -3 9 -10 16 -15
16 -5 0 -8 5 -6 11 1 6 -4 14 -11 16 -11 4 -12 1 -4 -14z"/>
<path d="M3550 3636 c0 -2 8 -10 18 -17 15 -13 16 -12 3 4 -13 16 -21 21 -21
13z"/>
<path d="M3608 3293 c6 -2 18 -2 25 0 6 3 1 5 -13 5 -14 0 -19 -2 -12 -5z"/>
<path d="M3278 3273 c6 -2 18 -2 25 0 6 3 1 5 -13 5 -14 0 -19 -2 -12 -5z"/>
<path d="M3343 3113 c15 -2 39 -2 55 0 15 2 2 4 -28 4 -30 0 -43 -2 -27 -4z"/>
<path d="M3478 3103 c12 -2 32 -2 45 0 12 2 2 4 -23 4 -25 0 -35 -2 -22 -4z"/>
<path d="M3298 3073 c6 -2 18 -2 25 0 6 3 1 5 -13 5 -14 0 -19 -2 -12 -5z"/>
<path d="M3413 3063 c15 -2 37 -2 50 0 12 2 0 4 -28 4 -27 0 -38 -2 -22 -4z"/>
<path d="M2570 2465 c0 -8 7 -15 16 -15 14 0 14 3 4 15 -7 8 -14 15 -16 15 -2
0 -4 -7 -4 -15z"/>
<path d="M2446 1913 c-6 -14 -5 -15 5 -6 7 7 10 15 7 18 -3 3 -9 -2 -12 -12z"/>
<path d="M2460 1886 c0 -12 -5 -16 -15 -12 -8 3 -15 1 -15 -4 0 -6 7 -10 15
-10 17 0 32 27 21 37 -3 4 -6 -2 -6 -11z"/>
<path d="M2791 1854 c0 -11 3 -14 6 -6 3 7 2 16 -1 19 -3 4 -6 -2 -5 -13z"/>
<path d="M2650 1625 c-14 -16 -5 -35 16 -35 15 0 20 35 5 44 -5 3 -14 -1 -21
-9z m16 -22 c-10 -10 -19 5 -10 18 6 11 8 11 12 0 2 -7 1 -15 -2 -18z"/>
<path d="M2380 1610 c0 -11 4 -20 8 -20 4 0 8 9 9 20 1 11 -2 20 -8 20 -5 0
-9 -9 -9 -20z"/>
<path d="M2345 1549 c-4 -6 -5 -12 -2 -15 2 -3 7 2 10 11 7 17 1 20 -8 4z"/>
<path d="M2355 1520 c-19 -8 -19 -9 2 -9 12 -1 25 4 28 9 7 12 -2 12 -30 0z"/>
<path d="M2531 1473 c0 -36 3 -63 9 -63 11 0 11 50 0 95 -6 24 -8 17 -9 -32z"/>
<path d="M2965 2700 c3 -5 8 -10 11 -10 2 0 4 5 4 10 0 6 -5 10 -11 10 -5 0
-7 -4 -4 -10z"/>
<path d="M2974 2658 c-9 -14 23 -38 42 -31 8 3 14 14 14 24 0 22 -44 27 -56 7z"/>
<path d="M1748 2743 c6 -2 18 -2 25 0 6 3 1 5 -13 5 -14 0 -19 -2 -12 -5z"/>
<path d="M1985 2670 c-3 -5 1 -10 10 -10 9 0 13 5 10 10 -3 6 -8 10 -10 10 -2
0 -7 -4 -10 -10z"/>
<path d="M2125 2270 c-3 -6 4 -14 17 -19 29 -11 35 -6 18 14 -14 17 -26 19
-35 5z"/>
<path d="M2150 2186 c0 -2 8 -10 18 -17 15 -13 16 -12 3 4 -13 16 -21 21 -21
13z"/>
<path d="M2117 2159 c7 -7 15 -10 18 -7 3 3 -2 9 -12 12 -14 6 -15 5 -6 -5z"/>
<path d="M3518 2243 c-24 -6 -23 -51 2 -83 11 -14 20 -20 20 -14 0 11 63 30
83 26 4 -1 7 13 6 31 0 29 -1 30 -9 10 -8 -19 -17 -23 -50 -23 -44 0 -61 19
-40 45 7 8 11 14 9 14 -2 -1 -12 -3 -21 -6z"/>
<path d="M3714 2174 c3 -9 6 -17 6 -19 0 -11 104 -75 121 -75 19 0 20 -4 14
-38 -5 -30 -2 -42 11 -53 11 -9 15 -9 10 -1 -4 7 -2 12 4 12 6 0 8 5 5 10 -3
6 -2 10 3 10 12 0 -13 101 -35 143 -18 35 -27 30 -13 -7 8 -21 7 -28 -5 -32
-25 -10 -61 4 -95 36 -18 16 -29 23 -26 14z"/>
<path d="M3765 2047 c16 -13 18 -18 7 -28 -10 -11 -19 -11 -45 -1 l-32 11 24
-19 c28 -24 44 -25 62 -4 14 17 3 45 -22 52 -8 2 -5 -3 6 -11z"/>
<path d="M3460 1960 c-8 -6 -28 -8 -45 -5 -28 6 -29 5 -11 -10 25 -19 29 -19
57 5 25 20 24 27 -1 10z"/>
<path d="M3635 1888 c8 -21 2 -22 -43 -9 -35 11 -44 -2 -13 -19 44 -23 92 3
62 33 -9 9 -11 8 -6 -5z"/>
<path d="M3813 1877 c4 -10 7 -24 7 -31 0 -7 7 -21 14 -32 13 -16 12 -12 0 26
-9 25 -18 47 -21 50 -4 3 -3 -3 0 -13z"/>
<path d="M3856 1855 c7 -36 20 -52 82 -95 52 -38 40 -18 -27 44 -24 23 -47 50
-52 61 -7 15 -8 13 -3 -10z"/>
<path d="M3820 1730 c8 -5 20 -10 25 -10 6 0 3 5 -5 10 -8 5 -19 10 -25 10 -5
0 -3 -5 5 -10z"/>
<path d="M1418 2333 c7 -3 16 -2 19 1 4 3 -2 6 -13 5 -11 0 -14 -3 -6 -6z"/>
<path d="M1622 1645 c0 -16 2 -22 5 -12 2 9 2 23 0 30 -3 6 -5 -1 -5 -18z"/>
<path d="M1810 1363 c0 -14 30 -53 41 -53 5 0 9 7 9 15 0 8 -4 15 -10 15 -5 0
-9 5 -7 12 1 6 -6 14 -15 16 -10 2 -18 0 -18 -5z"/>
<path d="M1385 1922 c13 -14 85 -27 85 -15 0 5 -8 9 -17 9 -10 1 -31 5 -48 9
-21 5 -27 4 -20 -3z"/>
<path d="M2845 1720 c3 -5 10 -10 16 -10 5 0 9 5 9 10 0 6 -7 10 -16 10 -8 0
-12 -4 -9 -10z"/>
<path d="M2132 1788 c6 -18 28 -21 28 -4 0 9 -7 16 -16 16 -9 0 -14 -5 -12
-12z"/>
<path d="M1450 1659 c14 -6 38 -22 54 -37 25 -24 27 -24 17 -5 -15 29 -50 53
-76 52 -17 0 -17 -2 5 -10z"/>
<path d="M2952 1430 c0 -14 2 -19 5 -12 2 6 2 18 0 25 -3 6 -5 1 -5 -13z"/>
<path d="M2810 1300 c20 -13 40 -13 40 0 0 6 -12 10 -27 10 -22 0 -25 -2 -13
-10z"/>
<path d="M3237 1267 c-40 -35 -42 -53 -6 -75 18 -11 24 -11 40 4 24 21 18 30
-9 13 -17 -10 -23 -10 -36 0 -24 20 -2 45 26 30 25 -14 36 -3 21 20 -9 14 -9
21 0 30 23 23 1 9 -36 -22z"/>
<path d="M3149 1113 c-13 -16 -12 -17 4 -4 9 7 17 15 17 17 0 8 -8 3 -21 -13z"/>
<path d="M3115 1060 c-9 -16 -13 -30 -11 -30 3 0 12 14 21 30 9 17 13 30 11
30 -3 0 -12 -13 -21 -30z"/>
<path d="M430 1530 c0 -5 5 -10 11 -10 5 0 7 5 4 10 -3 6 -8 10 -11 10 -2 0
-4 -4 -4 -10z"/>
<path d="M2166 1441 c-6 -10 22 -37 29 -29 8 7 -5 38 -15 38 -5 0 -11 -4 -14
-9z"/>
<path d="M2652 970 c0 -14 2 -19 5 -12 2 6 2 18 0 25 -3 6 -5 1 -5 -13z"/>
<path d="M2681 914 c0 -11 3 -14 6 -6 3 7 2 16 -1 19 -3 4 -6 -2 -5 -13z"/>
<path d="M3460 760 c8 -5 20 -10 25 -10 6 0 3 5 -5 10 -8 5 -19 10 -25 10 -5
0 -3 -5 5 -10z"/>
<path d="M3881 834 c0 -11 3 -14 6 -6 3 7 2 16 -1 19 -3 4 -6 -2 -5 -13z"/>
<path d="M3484 4185 c-4 -9 -2 -21 4 -27 15 -15 44 -1 40 19 -4 23 -36 29 -44
8z m23 -17 c-3 -8 -6 -5 -6 6 -1 11 2 17 5 13 3 -3 4 -12 1 -19z"/>
<path d="M938 3884 c-10 -22 -10 -28 6 -40 37 -26 76 22 44 54 -19 19 -38 14
-50 -14z m42 -9 c0 -19 -20 -29 -32 -17 -8 8 -7 16 2 26 14 17 30 12 30 -9z"/>
<path d="M557 3843 c-10 -9 -9 -33 1 -33 4 0 8 9 8 20 0 23 0 22 -9 13z"/>
<path d="M3900 3825 c0 -8 5 -15 10 -15 6 0 10 7 10 15 0 8 -4 15 -10 15 -5 0
-10 -7 -10 -15z"/>
<path d="M4030 3706 c0 -8 5 -18 10 -21 6 -3 10 3 10 14 0 12 -4 21 -10 21 -5
0 -10 -6 -10 -14z"/>
<path d="M4161 3595 c-81 -69 -53 -185 45 -185 34 0 47 5 63 27 30 37 36 68
22 114 -21 69 -77 88 -130 44z m106 -26 c16 -30 17 -89 2 -89 -6 0 -8 -7 -5
-16 3 -8 2 -13 -3 -10 -5 3 -11 0 -14 -7 -3 -8 -21 -14 -41 -15 -65 -2 -94 54
-61 118 31 59 96 70 122 19z"/>
<path d="M757 3420 c-50 -40 -20 -130 43 -130 33 0 70 40 70 75 0 57 -68 90
-113 55z m75 -17 c10 -9 18 -25 18 -36 0 -21 -35 -57 -56 -57 -36 0 -59 71
-32 98 17 17 48 15 70 -5z"/>
<path d="M4497 3402 c-21 -23 -22 -56 -3 -72 43 -35 99 28 61 70 -22 25 -37
25 -58 2z m48 -28 c0 -24 -4 -29 -25 -29 -30 0 -38 26 -14 49 23 23 39 15 39
-20z"/>
<path d="M623 3183 c-18 -6 -16 -50 1 -56 8 -3 22 0 31 7 14 10 15 16 6 34
-12 22 -17 24 -38 15z m27 -28 c0 -8 -4 -15 -9 -15 -13 0 -22 16 -14 24 11 11
23 6 23 -9z"/>
<path d="M4091 3126 c-7 -8 -11 -27 -9 -43 2 -22 9 -29 30 -31 23 -3 29 2 34
24 12 46 -28 82 -55 50z m29 -20 c0 -27 -15 -42 -25 -26 -8 13 3 50 16 50 5 0
9 -11 9 -24z"/>
<path d="M732 2979 c1 -12 9 -24 16 -27 9 -3 13 3 10 19 -1 12 -9 24 -16 27
-9 3 -13 -3 -10 -19z"/>
<path d="M4205 2905 c-35 -34 -35 -91 0 -107 21 -9 28 -8 45 7 33 30 24 125
-12 125 -5 0 -20 -11 -33 -25z m53 -30 c4 -41 -21 -74 -45 -59 -25 15 -28 40
-8 70 22 33 49 28 53 -11z"/>
<path d="M3520 2771 c0 -9 64 -61 74 -61 3 0 6 6 6 14 0 8 -16 23 -36 35 -39
24 -44 25 -44 12z"/>
<path d="M521 2741 c-79 -79 -8 -263 92 -238 31 8 65 42 73 73 10 40 -15 105
-56 146 -43 43 -79 49 -109 19z m101 -28 c15 -16 32 -41 37 -56 14 -36 14 -90
1 -82 -5 3 -10 -3 -10 -14 0 -25 -20 -38 -31 -20 -7 11 -9 11 -9 1 0 -7 -4
-10 -10 -7 -5 3 -10 1 -10 -6 0 -7 -8 -5 -22 7 -12 10 -18 13 -13 5 5 -10 4
-12 -4 -7 -18 12 -51 83 -51 111 0 14 7 41 14 60 13 30 20 35 49 35 23 0 41
-8 59 -27z"/>
<path d="M325 2720 c-9 -14 3 -47 20 -53 22 -9 38 18 25 42 -11 22 -35 28 -45
11z"/>
<path d="M1136 2614 c-4 -9 -4 -19 -1 -22 2 -3 7 3 11 12 4 9 4 19 1 22 -2 3
-7 -3 -11 -12z"/>
<path d="M340 2474 c0 -8 5 -12 10 -9 6 4 8 11 5 16 -9 14 -15 11 -15 -7z"/>
<path d="M470 2422 c0 -21 18 -42 37 -42 16 0 17 32 1 48 -18 18 -38 15 -38
-6z m30 -12 c0 -5 -2 -10 -4 -10 -3 0 -8 5 -11 10 -3 6 -1 10 4 10 6 0 11 -4
11 -10z"/>
<path d="M4172 2388 c-24 -24 -12 -108 14 -108 31 0 47 103 18 114 -20 8 -18
8 -32 -6z m30 -29 c-2 -7 -4 -26 -4 -40 -1 -23 -3 -25 -14 -14 -15 15 -18 34
-8 60 8 19 30 14 26 -6z"/>
<path d="M310 2272 c0 -34 16 -52 47 -52 27 0 31 25 7 58 -23 33 -54 29 -54
-6z m49 -8 c6 -15 9 -29 6 -32 -10 -11 -40 14 -43 37 -5 30 22 27 37 -5z"/>
<path d="M4471 2158 c-1 -16 1 -28 4 -28 2 0 21 11 41 25 40 27 40 32 -1 13
-14 -6 -25 -16 -26 -22 -1 -6 -5 0 -9 14 l-8 25 -1 -27z"/>
<path d="M674 2129 c-11 -18 11 -32 25 -16 9 12 8 16 -3 20 -9 4 -18 1 -22 -4z"/>
<path d="M4528 2113 c7 -3 16 -2 19 1 4 3 -2 6 -13 5 -11 0 -14 -3 -6 -6z"/>
<path d="M4657 2083 c-13 -13 -7 -54 9 -60 19 -7 34 13 34 45 0 21 -27 31 -43
15z m26 -33 c-3 -11 -9 -20 -14 -20 -10 0 -12 33 -3 43 12 12 22 -3 17 -23z"/>
<path d="M4365 2069 c-4 -6 -5 -12 -2 -15 2 -3 7 2 10 11 7 17 1 20 -8 4z"/>
<path d="M1060 1923 c0 -5 12 -16 25 -26 19 -13 25 -15 25 -4 0 7 -5 18 -12
25 -13 13 -38 16 -38 5z"/>
<path d="M4573 1911 c-40 -25 -50 -54 -29 -86 19 -28 47 -32 66 -10 12 14 15
14 30 0 9 -8 26 -15 38 -15 17 0 22 6 22 26 0 25 -3 26 -33 21 -32 -5 -33 -4
-29 26 l4 32 -40 -39 c-36 -35 -42 -37 -48 -21 -10 24 6 47 47 67 19 10 27 18
19 18 -8 0 -29 -9 -47 -19z m110 -92 c-6 -6 -17 -8 -24 -3 -9 5 -8 9 7 14 23
9 31 3 17 -11z"/>
<path d="M721 1734 c0 -11 3 -14 6 -6 3 7 2 16 -1 19 -3 4 -6 -2 -5 -13z"/>
<path d="M800 1510 c17 -33 33 -60 35 -60 3 0 -8 27 -25 60 -17 33 -33 60 -35
60 -3 0 8 -27 25 -60z"/>
<path d="M423 1305 c-86 -37 -64 -148 36 -175 125 -33 186 116 71 175 -36 18
-65 18 -107 0z m92 -9 c44 -19 89 -106 54 -106 -5 0 -8 -4 -4 -10 12 -19 -44
-43 -88 -37 -101 14 -119 131 -24 159 12 3 23 6 25 7 1 1 18 -5 37 -13z"/>
<path d="M4494 1295 c-11 -28 5 -64 31 -71 26 -7 55 9 55 30 0 18 -43 56 -63
56 -10 0 -20 -7 -23 -15z m54 -7 c7 -7 12 -20 12 -31 0 -14 -6 -18 -27 -15
-22 2 -29 9 -31 31 -3 21 1 27 15 27 11 0 24 -5 31 -12z"/>
<path d="M4370 1265 c14 -8 30 -14 35 -14 6 0 -1 6 -15 14 -14 8 -29 14 -35
14 -5 0 1 -6 15 -14z"/>
<path d="M4348 1233 c7 -3 16 -2 19 1 4 3 -2 6 -13 5 -11 0 -14 -3 -6 -6z"/>
<path d="M4425 1216 c11 -9 28 -27 39 -39 l18 -22 -14 24 c-8 14 -25 31 -39
39 -23 14 -23 13 -4 -2z"/>
<path d="M4602 1138 c-17 -17 -15 -43 4 -59 14 -11 19 -10 36 10 10 14 17 31
16 40 -4 20 -39 26 -56 9z"/>
<path d="M496 932 c-8 -14 32 -22 57 -12 14 5 16 9 7 10 -8 0 -25 3 -36 6 -12
3 -24 1 -28 -4z"/>
<path d="M4770 736 c0 -2 11 -6 25 -8 14 -3 25 -1 25 3 0 5 -11 9 -25 9 -14 0
-25 -2 -25 -4z"/>
<path d="M4725 710 c-14 -6 -4 -9 38 -9 36 -1 56 3 52 9 -7 12 -62 12 -90 0z"/>
<path d="M680 580 c0 -5 5 -10 10 -10 6 0 10 5 10 10 0 6 -4 10 -10 10 -5 0
-10 -4 -10 -10z"/>
<path d="M948 573 c6 -2 18 -2 25 0 6 3 1 5 -13 5 -14 0 -19 -2 -12 -5z"/>
<path d="M868 563 c12 -2 30 -2 40 0 9 3 -1 5 -23 4 -22 0 -30 -2 -17 -4z"/>
<path d="M1100 561 c0 -5 9 -7 20 -4 11 3 20 7 20 9 0 2 -9 4 -20 4 -11 0 -20
-4 -20 -9z"/>
<path d="M765 550 c-13 -6 -5 -7 25 -3 25 3 47 7 49 9 9 8 -55 2 -74 -6z"/>
<path d="M674 518 c-3 -4 23 -7 58 -7 66 1 62 6 -10 11 -24 2 -46 0 -48 -4z"/>
<path d="M1075 470 c-3 -5 1 -10 10 -10 9 0 13 5 10 10 -3 6 -8 10 -10 10 -2
0 -7 -4 -10 -10z"/>
<path d="M3644 376 c-14 -36 13 -57 46 -36 12 7 12 13 4 27 -15 24 -43 28 -50
9z"/>
<path d="M2160 350 c0 -5 7 -10 15 -10 8 0 15 5 15 10 0 6 -7 10 -15 10 -8 0
-15 -4 -15 -10z"/>
</g>
</svg>
